<svg width="61" height="80" viewBox="0 0 61 80" fill="none" xmlns="http://www.w3.org/2000/svg">
<path d="M12.4296 0.00622559C12.8742 0.127296 13.323 0.240017 13.7655 0.3757C15.6467 0.966304 17.2536 2.21208 18.2943 3.88672C19.335 5.56136 19.7405 7.55375 19.4371 9.50194C18.8505 13.3846 15.4083 16.3633 11.4527 16.4134C9.4012 16.4416 7.41371 15.6997 5.88254 14.3341C4.35136 12.9685 3.38778 11.0785 3.18199 9.03718C2.97621 6.99586 3.54319 4.95157 4.77099 3.30786C5.9988 1.66414 7.79822 0.54045 9.81404 0.158607C9.95651 0.119084 10.096 0.0695585 10.2315 0.0103997L12.4296 0.00622559ZM17.1847 8.21817C17.1847 7.0628 16.8423 5.93335 16.2007 4.9725C15.5591 4.01164 14.6472 3.2625 13.58 2.81969C12.5129 2.37689 11.3384 2.26029 10.205 2.48463C9.07167 2.70897 8.0302 3.26419 7.21221 4.08014C6.39422 4.89608 5.83641 5.93616 5.60924 7.06898C5.38207 8.20179 5.49573 9.37653 5.93587 10.4448C6.37601 11.513 7.12288 12.4269 8.08213 13.0709C9.04138 13.7148 10.17 14.0601 11.3253 14.063C12.0941 14.0649 12.8557 13.9151 13.5665 13.6223C14.2773 13.3294 14.9234 12.8992 15.4677 12.3562C16.012 11.8133 16.4438 11.1683 16.7384 10.4583C17.0331 9.74818 17.1848 8.98695 17.1847 8.21817Z" fill="#7C42B4"/>
<path d="M31.1899 0.00622559C31.6345 0.127296 32.0833 0.240017 32.5237 0.3757C34.4032 0.967936 36.0079 2.21448 37.0467 3.88902C38.0854 5.56355 38.4892 7.55505 38.1848 9.50194C37.5983 13.3846 34.1561 16.3633 30.2004 16.4134C28.1492 16.441 26.1621 15.6987 24.6313 14.3329C23.1006 12.9672 22.1374 11.0772 21.9319 9.03611C21.7264 6.99498 22.2935 4.95096 23.5213 3.30747C24.749 1.66399 26.5483 0.540452 28.5639 0.158607C28.7097 0.118906 28.8527 0.0693911 28.9918 0.0103997L31.1899 0.00622559ZM35.9409 8.26827C35.9499 7.11712 35.6188 5.98894 34.9891 5.02526C34.3594 4.06157 33.4591 3.3053 32.4012 2.85131C31.3433 2.39733 30.1749 2.26585 29.0426 2.47336C27.9103 2.68088 26.8645 3.21815 26.0363 4.01778C25.2082 4.81741 24.6346 5.84379 24.3876 6.96815C24.1406 8.09251 24.231 9.26479 24.6477 10.3379C25.0644 11.4111 25.7887 12.3372 26.7297 13.0003C27.6708 13.6634 28.7866 14.0338 29.9374 14.0651C30.7133 14.0848 31.4854 13.9497 32.2085 13.6678C32.9317 13.386 33.5915 12.9629 34.1493 12.4232C34.7072 11.8836 35.152 11.2383 35.4578 10.5249C35.7636 9.81154 35.9243 9.0444 35.9304 8.26827H35.9409Z" fill="#7C42B4"/>
<path d="M49.9301 0.00626203C51.12 0.492633 52.3202 0.960217 53.4955 1.47999C53.8146 1.65715 54.1036 1.88405 54.3513 2.15214C54.9984 2.74706 55.0819 3.38164 54.6081 3.92854C54.1342 4.47545 53.4746 4.48171 52.8171 3.90558C51.9579 3.13989 50.9027 2.6282 49.7694 2.42768C46.6904 1.87451 43.5363 4.11641 43.0625 7.20789C42.9287 7.99329 42.956 8.79768 43.1425 9.57224C43.3291 10.3468 43.6711 11.0754 44.1478 11.7137C44.6245 12.3521 45.226 12.8869 45.9157 13.2857C46.6054 13.6845 47.3689 13.939 48.16 14.0338C51.2661 14.4513 54.3117 12.0507 54.631 8.94463C54.6603 8.65866 54.6686 8.37268 54.7062 8.08879C54.8043 7.35401 55.2948 6.89895 55.9336 6.9407C56.5723 6.98245 57.0274 7.49387 57.0232 8.22865C57.0391 10.2037 56.3204 12.1142 55.0068 13.5892C53.8572 14.9187 52.3082 15.8404 50.5914 16.2167C48.8746 16.5929 47.0821 16.4035 45.4818 15.6766C42.1419 14.1611 40.2904 10.8212 40.7141 7.08265C41.1003 3.67596 43.8453 0.820359 47.3939 0.137769C47.5147 0.102598 47.6321 0.056485 47.7446 0L49.9301 0.00626203Z" fill="#7C42B4"/>
<path d="M55.0643 27.3432C54.889 28.4558 54.8201 29.4995 54.5487 30.4889C54.0093 32.4411 52.8052 34.1437 51.1441 35.3026C46.1948 38.8929 41.2518 42.4958 36.2879 46.0674C36.0382 46.2191 35.8357 46.4373 35.7029 46.6976C35.5702 46.9579 35.5126 47.25 35.5364 47.5412C35.5824 49.8832 35.5573 52.2274 35.5531 54.5716C35.5531 55.8241 34.8309 56.3376 33.6744 55.918C30.9837 54.9473 28.3056 53.9516 25.6128 52.9956C24.8926 52.7388 24.5983 52.2733 24.6108 51.5219C24.6359 50.117 24.5983 48.7101 24.6296 47.3032C24.6456 47.0864 24.6009 46.8695 24.5007 46.6767C24.4004 46.4839 24.2485 46.3228 24.0618 46.2115C22.0892 44.8066 20.1208 43.3976 18.1962 41.9301C17.8273 41.63 17.5918 41.1964 17.5407 40.7236C17.5198 39.8886 18.5468 39.3751 19.2649 39.8886C21.5611 41.5071 23.8322 43.161 26.0783 44.8505C26.7337 45.3431 26.9654 46.1029 26.9634 46.9379C26.9634 48.1089 26.9446 49.2821 26.978 50.4531C26.978 50.6786 27.145 51.0355 27.3224 51.1023C29.2345 51.835 31.1654 52.5238 33.1672 53.2524C33.1881 52.9476 33.2131 52.7284 33.2131 52.5071C33.2131 50.737 33.2403 48.9585 33.2131 47.1967C33.1902 45.9965 33.6536 45.1093 34.6263 44.4142C39.6904 40.7612 44.7448 37.0922 49.7894 33.4072C51.7871 31.946 52.6805 29.9358 52.5907 27.4142H7.60245C7.4939 29.8189 8.3247 31.7978 10.2222 33.259C11.6625 34.3736 13.1655 35.4069 14.635 36.484C15.4345 37.0706 15.6161 37.7177 15.1652 38.3231C14.7143 38.9284 14.0338 38.9493 13.2427 38.3669C11.8921 37.3921 10.5499 36.4047 9.19933 35.4299C6.61301 33.5658 5.28123 31.0463 5.24574 27.8546C5.24574 27.7273 5.23531 27.5979 5.22278 27.3515C4.47548 27.3515 3.73027 27.3515 2.98714 27.3515C1.16691 27.3411 0.0647428 26.2723 0.0188194 24.4604C-0.00414235 23.4961 -0.00831721 22.5317 0.0188194 21.5694C0.0730925 19.841 1.17526 18.7639 2.90573 18.7618C11.8622 18.7618 20.8187 18.7618 29.7751 18.7618C30.7124 18.7618 31.2238 19.1793 31.2363 19.9015C31.2488 20.6238 30.7186 21.1018 29.748 21.1039H3.42759C2.35674 21.1039 2.35674 21.1039 2.35465 22.1956C2.35465 22.8469 2.37761 23.4981 2.35465 24.1473C2.33169 24.7965 2.52582 25.1013 3.18963 25.0136C3.31961 25.0053 3.44999 25.0053 3.57998 25.0136H56.6153C57.8176 25.0136 57.8177 25.0136 57.8197 23.8133C57.8197 23.2143 57.7843 22.6131 57.8197 22.0182C57.8698 21.2959 57.5839 21.0893 56.8679 21.0913C49.9689 21.1164 43.07 21.1059 36.1689 21.1059C35.9093 21.1235 35.6485 21.1158 35.3903 21.083C34.7474 20.9536 34.3758 20.5528 34.403 19.8806C34.4259 19.2544 34.7996 18.8828 35.4154 18.7785C35.6234 18.7567 35.8328 18.7518 36.0416 18.7639H56.9827C59.1056 18.7639 60.1493 19.8076 60.1639 21.9138C60.1639 22.7717 60.1827 23.6317 60.1639 24.4897C60.1138 26.2619 59.0096 27.339 57.2415 27.3557C56.5109 27.3494 55.7824 27.3432 55.0643 27.3432Z" fill="#7C42B4"/>
<path d="M19.1484 69.0334C19.1498 66.2685 20.1999 63.6071 22.0869 61.5863C23.9739 59.5654 26.5573 58.3357 29.3155 58.1452C32.0738 57.9547 34.8017 58.8177 36.9485 60.56C39.0954 62.3023 40.5014 64.7941 40.8828 67.5325C40.9851 68.5388 40.9851 69.5529 40.8828 70.5593C40.8285 71.3483 40.2565 71.7909 39.5906 71.7032C38.8934 71.6113 38.5114 71.0248 38.5929 70.2002C38.9519 66.5723 37.6222 63.7104 34.5558 61.7524C33.1248 60.8502 31.4554 60.3996 29.7648 60.4592C28.0742 60.5187 26.4407 61.0857 25.0768 62.0864C23.6838 63.073 22.6177 64.4537 22.0154 66.0509C21.4132 67.6481 21.3023 69.3889 21.6971 71.0496C22.0918 72.7103 22.9742 74.2151 24.2307 75.3705C25.4873 76.5258 27.0606 77.2791 28.7485 77.5334C31.6876 77.9905 34.1884 77.0929 36.2821 75.0097C36.4662 74.7906 36.6726 74.5912 36.8979 74.4147C37.4197 74.0766 37.9562 74.1142 38.3799 74.5797C38.8559 75.1036 38.8141 75.6735 38.3632 76.1995C36.922 77.9021 34.9841 79.1109 32.8211 79.6563C31.2023 80.0717 29.5099 80.1111 27.8735 79.7715C26.2372 79.4318 24.7003 78.7221 23.3805 77.6967C22.0608 76.6714 20.9932 75.3575 20.2597 73.8559C19.5261 72.3542 19.146 70.7046 19.1484 69.0334Z" fill="#7C42B4"/>
<path d="M30.1729 62.3829C30.7198 62.4747 31.1749 62.767 31.2166 63.4057C31.2438 63.8754 31.4504 64.0653 31.8658 64.2156C32.7279 64.5246 33.0619 65.1383 32.8052 65.8083C32.5484 66.4784 31.9431 66.6913 31.0538 66.4053C30.7887 66.3198 30.4714 66.2133 30.2188 66.2843C29.9663 66.3552 29.6344 66.6037 29.5801 66.8312C29.5258 67.0587 29.722 67.4198 29.9224 67.5806C30.1708 67.7893 30.532 67.8519 30.8534 67.95C32.1643 68.3508 33.1496 69.0877 33.3583 70.5259C33.5671 72.031 32.9408 73.1352 31.6362 73.9076C31.4307 74.0721 31.2938 74.3073 31.2521 74.5672C31.1039 75.3187 30.6697 75.8029 30.0477 75.7508C29.3567 75.6902 29.004 75.279 28.8933 74.5881C28.7998 74.2995 28.6171 74.048 28.3715 73.87C27.9769 73.5381 27.4906 73.3126 27.119 72.962C26.641 72.509 26.6243 71.9412 27.0188 71.411C27.4133 70.8808 28.0375 70.837 28.6199 71.2023C28.9504 71.4498 29.3075 71.6599 29.6845 71.8285C30.3107 72.0372 30.8952 71.7533 31.0204 71.2419C31.1811 70.5844 30.7094 70.3882 30.2314 70.1982C29.6552 69.9665 29.0332 69.8016 28.5218 69.4676C28.117 69.2131 27.78 68.8643 27.5397 68.451C27.2994 68.0377 27.1629 67.5723 27.142 67.0947C27.1211 66.6171 27.2163 66.1415 27.4195 65.7088C27.6228 65.276 27.9279 64.899 28.3088 64.6102C28.7055 64.295 28.9351 64.0132 28.9476 63.4809C28.9522 63.3271 28.988 63.1758 29.0529 63.0363C29.1177 62.8967 29.2102 62.7718 29.3248 62.6691C29.4394 62.5665 29.5737 62.4881 29.7195 62.4389C29.8653 62.3897 30.0195 62.3706 30.1729 62.3829Z" fill="#7C42B4"/>
<path d="M47.6634 8.12633C47.1353 8.12633 46.747 8.15138 46.3629 8.12633C46.0609 8.11388 45.7756 7.98455 45.5672 7.76565C45.3589 7.54674 45.2437 7.25541 45.2461 6.95319C45.2448 6.80284 45.2732 6.65371 45.33 6.51446C45.3867 6.3752 45.4705 6.2486 45.5765 6.14199C45.6825 6.03538 45.8087 5.95089 45.9476 5.89341C46.0866 5.83594 46.2355 5.80664 46.3859 5.8072C48.0224 5.77797 49.6583 5.77797 51.2934 5.8072C51.444 5.808 51.5929 5.83872 51.7314 5.89759C51.87 5.95646 51.9955 6.04229 52.1006 6.1501C52.2056 6.25791 52.2882 6.38553 52.3435 6.52555C52.3989 6.66558 52.4258 6.8152 52.4227 6.96572C52.4213 7.26771 52.3028 7.55737 52.0922 7.77381C51.8816 7.99025 51.5953 8.11661 51.2934 8.12633C50.9093 8.15555 50.5211 8.12633 50.0055 8.12633C50.0055 8.86528 50.0159 9.55413 50.0055 10.2409C49.9909 11.174 49.588 11.7021 48.8678 11.7188C48.1477 11.7355 47.6801 11.1907 47.6676 10.2284C47.655 9.5583 47.6634 8.88824 47.6634 8.12633Z" fill="#7C42B4"/>
<path d="M10.1615 8.12847C9.68556 8.12847 9.32652 8.14517 8.96748 8.12847C8.24106 8.09089 7.75469 7.62122 7.74634 6.97412C7.74312 6.81748 7.77188 6.66184 7.83086 6.5167C7.88984 6.37155 7.97779 6.23996 8.08935 6.12997C8.20091 6.01997 8.33373 5.93388 8.47969 5.87696C8.62565 5.82003 8.78168 5.79347 8.93826 5.7989C10.5477 5.77593 12.1592 5.77385 13.7686 5.7989C13.9188 5.79752 14.0678 5.82575 14.2071 5.88196C14.3464 5.93818 14.4733 6.02129 14.5805 6.12655C14.6877 6.2318 14.7731 6.35714 14.8319 6.4954C14.8906 6.63367 14.9216 6.78215 14.9229 6.93237C14.9375 7.57739 14.4553 8.07837 13.7414 8.12429C13.3594 8.14725 12.9753 8.12429 12.5078 8.12429V9.58549C12.5078 11.1427 12.1759 11.7669 11.3158 11.7001C10.5414 11.6374 10.0634 11.3222 10.1573 9.54583C10.1845 9.11582 10.1615 8.66702 10.1615 8.12847Z" fill="#7C42B4"/>
<path d="M31.2549 8.12849C31.2549 8.94258 31.2716 9.66692 31.2549 10.3871C31.2278 11.2221 30.7518 11.7418 30.0525 11.7189C29.3846 11.6959 28.9587 11.2033 28.9212 10.3933C28.9066 10.0301 28.9212 9.66483 28.9212 9.30162V8.12849C28.4724 8.12849 28.0862 8.14518 27.7084 8.12849C26.9882 8.08882 26.5039 7.60663 26.5039 6.95953C26.5032 6.80291 26.5343 6.64777 26.5954 6.50357C26.6566 6.35937 26.7464 6.22912 26.8595 6.12074C26.9725 6.01236 27.1065 5.92812 27.2531 5.87315C27.3998 5.81819 27.5561 5.79364 27.7125 5.801C29.2962 5.77874 30.8806 5.77874 32.4656 5.801C32.6222 5.79339 32.7787 5.81757 32.9256 5.87208C33.0726 5.9266 33.207 6.01031 33.3207 6.11819C33.4344 6.22606 33.5251 6.35585 33.5873 6.49973C33.6495 6.64362 33.6819 6.7986 33.6826 6.95535C33.6826 7.60245 33.2025 8.08882 32.4823 8.13057C32.1149 8.14518 31.7538 8.12849 31.2549 8.12849Z" fill="#7C42B4"/>
</svg>
