<svg width="82" height="80" viewBox="0 0 82 80" fill="none" xmlns="http://www.w3.org/2000/svg">
<path d="M60.3499 79.998H21.9202C21.2942 79.5514 21.0709 78.9545 21.1272 78.1866C21.1836 77.4186 21.1272 76.6778 21.1418 75.9223C21.1424 75.472 21.2317 75.0262 21.4047 74.6104C21.5776 74.1946 21.8309 73.8169 22.1499 73.4991C22.4689 73.1812 22.8475 72.9293 23.2639 72.7579C23.6803 72.5864 24.1265 72.4988 24.5768 72.4998C25.1423 72.4894 25.71 72.4998 26.3277 72.4998C26.6052 70.8137 26.8703 69.1901 27.1478 67.4914H9.22373C5.67606 67.4914 3.64345 65.4755 3.64345 61.9424C3.64345 49.8873 3.64345 37.8328 3.64345 25.7791C3.66954 25.2143 3.47837 24.661 3.10921 24.2327C0.995217 21.6888 0.577845 18.6086 1.36877 15.6119C2.51237 11.2483 4.14638 7.00983 5.58632 2.7255C6.17899 0.962097 7.50415 0.0125732 9.34268 0.0125732C30.5327 0.0125732 51.7214 0.0125732 72.9086 0.0125732C74.7534 0.0125732 76.0619 0.970445 76.665 2.7255C77.122 4.05275 77.5498 5.38834 77.9985 6.71767C79.0433 9.78954 80.0874 12.8628 81.1309 15.9374V19.842C81.07 19.9804 81.0205 20.1234 80.9827 20.2698C80.7011 21.7574 80.0615 23.1541 79.1191 24.3392C78.8319 24.7169 78.6674 25.1735 78.6475 25.6476C78.6225 37.7515 78.6155 49.8553 78.6266 61.9591C78.6266 65.4567 76.5961 67.4997 73.1152 67.4997H55.1056C55.3977 69.2318 55.6711 70.8575 55.9403 72.5082C56.5914 72.5082 57.1382 72.5082 57.6828 72.5082C58.592 72.5071 59.4645 72.8669 60.1085 73.5086C60.7526 74.1504 61.1156 75.0215 61.1178 75.9307C61.1345 76.684 61.0782 77.4416 61.1345 78.1928C61.1909 78.9441 60.9655 79.5472 60.3499 79.998ZM32.6196 22.8867C30.9501 25.7603 28.4667 27.3839 25.1319 27.4778C21.7971 27.5717 19.2553 26.0692 17.3729 23.3041C15.8474 25.6247 13.7898 26.9582 11.1875 27.4236V49.9429H71.0805V27.4048C68.4156 26.9436 66.3934 25.56 64.9096 23.3437C64.0873 24.6485 62.9387 25.7163 61.5775 26.4415C60.2163 27.1667 58.6895 27.5243 57.1478 27.479C55.6061 27.4337 54.1029 26.987 52.7866 26.1831C51.4703 25.3792 50.3865 24.2459 49.6421 22.8951C45.675 29.0764 36.5116 28.9678 32.6196 22.8867ZM76.1224 57.5496H6.15395C6.15395 59.313 6.11013 61.0284 6.18317 62.7396C6.20195 63.2154 6.49411 63.7329 6.79462 64.1315C7.36016 64.8786 8.20534 65.0059 9.10687 65.0059C30.4485 64.9976 51.7916 64.9976 73.1361 65.0059C73.3176 65.0059 73.5013 65.0059 73.6828 65.0059C75.0163 64.9391 76.0723 63.9437 76.1078 62.6206C76.1537 60.9449 76.1224 59.2796 76.1224 57.5496ZM73.6181 27.4778V50.7005C73.6181 52.13 73.2488 52.4993 71.8172 52.4993H10.4404C9.0067 52.4993 8.64149 52.132 8.64149 50.7005V27.4778L6.18943 26.7537V54.943H76.0639V26.7474L73.6181 27.4778ZM34.7816 2.53559C34.4352 6.70933 34.095 10.8079 33.7507 14.9462H48.5173C48.1688 10.7829 47.8266 6.67385 47.4739 2.53559H34.7816ZM31.2339 14.965C31.5824 10.7745 31.9226 6.66968 32.2648 2.52725H20.9436C20.2549 6.67176 19.5683 10.8017 18.8755 14.965H31.2339ZM49.9865 2.52725C50.3371 6.71767 50.6793 10.8288 51.0299 14.9566H63.3925L61.3223 2.52725H49.9865ZM63.8474 2.50012C64.5549 6.74063 65.2415 10.858 65.9343 14.9691H78.0924C78.0026 14.654 77.9338 14.3806 77.844 14.1135C76.8173 11.0333 75.7572 7.95936 74.7638 4.8708C73.9291 2.281 74.0334 2.49803 71.4624 2.49803L63.8474 2.50012ZM16.3379 14.9733C17.0307 10.7996 17.7131 6.6822 18.408 2.50012C15.3946 2.50012 12.5085 2.50012 9.62441 2.50012C8.51628 2.50012 8.22203 2.7088 7.86935 3.77102C6.71184 7.24913 5.55572 10.7272 4.40098 14.2053C4.32168 14.4453 4.2549 14.6916 4.16934 14.9775L16.3379 14.9733ZM28.8737 72.4623H53.3922C53.1126 70.7928 52.8413 69.1588 52.57 67.5227H29.6938C29.4225 69.1609 29.1512 70.7886 28.8737 72.4623ZM48.5966 17.5506H33.6672C33.5775 21.5469 37.025 24.9798 41.0902 24.9986C45.1971 25.0174 48.6822 21.5866 48.5966 17.5506ZM23.6836 77.4436H58.6282C58.6282 77.2078 58.6282 77.0263 58.6282 76.8468C58.6407 75.1001 58.5405 74.9978 56.7813 74.9978C46.475 74.9978 36.1686 74.9978 25.8623 74.9978C23.7525 74.9874 23.4958 74.9436 23.6836 77.4436ZM3.67684 17.536C3.44102 20.2823 4.22151 22.5445 6.58384 24.024C8.78966 25.4035 11.0956 25.3826 13.2806 23.9719C15.5908 22.4798 16.3462 20.2343 16.1 17.536H3.67684ZM18.671 17.536C18.4372 20.4576 19.3158 22.7824 21.8743 24.214C24.1469 25.4765 26.4445 25.3179 28.5523 23.7966C30.66 22.2753 31.332 20.0966 31.0878 17.5485L18.671 17.536ZM51.1593 17.536C50.9277 20.5244 51.8563 22.8867 54.515 24.2807C56.821 25.489 59.1061 25.2553 61.1929 23.6797C63.213 22.1417 63.837 20.0068 63.5887 17.536H51.1593ZM66.1618 17.536C65.9176 20.4075 66.7753 22.7198 69.2921 24.1597C71.548 25.4556 73.8519 25.3304 75.9826 23.8362C78.1446 22.317 78.8353 20.1258 78.5911 17.536H66.1618Z" fill="#2D67BF"/>
<path d="M22.761 36.2155H27.0161C26.7469 35.1179 26.4839 34.0619 26.2293 33.0059C26.0206 32.1336 26.3671 31.4658 27.1079 31.2843C27.7966 31.1173 28.4185 31.5451 28.6376 32.3715C28.9715 33.6237 29.2866 34.8904 29.6121 36.1488C29.6121 36.1676 29.6455 36.1801 29.7207 36.2489C30.4928 36.2489 31.3234 36.2489 32.1539 36.2489C32.9845 36.2489 33.5334 36.6663 33.6147 37.3466C33.6982 37.9894 33.3101 38.436 32.5358 38.7574C32.4192 38.8296 32.3191 38.9257 32.2421 39.0394C32.1651 39.153 32.1131 39.2816 32.0892 39.4168C31.7512 41.2595 31.4632 43.1085 31.1439 44.9553C30.9811 45.9049 30.5825 46.2429 29.6101 46.245C26.4589 46.245 23.3084 46.245 20.1586 46.245C19.1549 46.245 18.7855 45.9153 18.6081 44.8844C18.2596 42.8622 17.9215 40.838 17.5834 38.8325C17.2642 38.726 16.8802 38.7135 16.7487 38.5278C16.4837 38.1292 16.1852 37.6346 16.2061 37.1922C16.2332 36.6079 16.7466 36.2615 17.3664 36.2469C18.2742 36.2281 19.1841 36.2469 20.1399 36.2469C20.4675 34.9572 20.7826 33.703 21.1082 32.4508C21.3419 31.5535 21.9429 31.109 22.6462 31.2759C23.41 31.4575 23.7376 32.1274 23.5122 33.0665C23.2764 34.1057 23.0239 35.1387 22.761 36.2155ZM20.9454 43.7137H28.8337C29.1029 42.065 29.3701 40.4415 29.6393 38.7991H20.1273C20.4028 40.4686 20.672 42.0859 20.9454 43.7137Z" fill="#2D67BF"/>
<path d="M53.0035 31.2488H65.5768C65.8366 31.2298 66.0978 31.2403 66.3552 31.2801C66.9813 31.4304 67.3611 31.8457 67.359 32.4989C67.3569 33.152 66.9792 33.5652 66.3511 33.7134C66.0944 33.7539 65.8339 33.7651 65.5747 33.7468H40.4364C40.1765 33.7651 39.9153 33.7539 39.658 33.7134C39.0319 33.5632 38.6542 33.152 38.6563 32.4947C38.6583 31.8373 39.034 31.4283 39.6621 31.2801C39.9189 31.2403 40.1793 31.2298 40.4384 31.2488H53.0035Z" fill="#2D67BF"/>
<path d="M52.9262 39.999H40.4363C40.2025 40.0141 39.9677 40.0071 39.7352 39.9781C39.0653 39.8529 38.6562 39.4418 38.6562 38.7511C38.6562 38.0603 39.059 37.645 39.7331 37.5198C39.9662 37.4893 40.2017 37.4809 40.4363 37.4948H65.5831C65.8169 37.4801 66.0516 37.4864 66.2843 37.5136C66.9562 37.6388 67.3653 38.0541 67.3653 38.7427C67.3653 39.4314 66.9583 39.8467 66.2864 39.974C66.0538 40.003 65.819 40.0099 65.5852 39.9948L52.9262 39.999Z" fill="#2D67BF"/>
<path d="M48.6348 46.2596C45.7967 46.2596 42.9585 46.2596 40.1225 46.2596C39.2648 46.2596 38.741 45.8547 38.6492 45.1702C38.5427 44.3897 39.1291 43.7741 40.0369 43.7658C41.8588 43.7512 43.6806 43.7658 45.5024 43.7658C49.3548 43.7658 53.2078 43.7658 57.0616 43.7658C57.984 43.7658 58.5224 44.1477 58.6142 44.853C58.7248 45.6502 58.1092 46.2575 57.1534 46.2596C54.309 46.2596 51.4709 46.2596 48.6348 46.2596Z" fill="#2D67BF"/>
<path d="M42.3748 61.2183C42.3818 61.4665 42.3149 61.7112 42.1825 61.9213C42.05 62.1313 41.8581 62.2973 41.6312 62.398C41.4042 62.4988 41.1524 62.5298 40.9078 62.487C40.6631 62.4443 40.4367 62.3298 40.2574 62.1581C40.078 61.9863 39.9537 61.7652 39.9003 61.5226C39.847 61.2801 39.8669 61.0272 39.9577 60.796C40.0484 60.5649 40.2059 60.3659 40.41 60.2245C40.6141 60.083 40.8556 60.0054 41.1039 60.0016C41.4332 59.9965 41.7512 60.1214 41.9891 60.3491C42.227 60.5768 42.3655 60.8891 42.3748 61.2183Z" fill="#2D67BF"/>
</svg>
