<svg width="81" height="81" viewBox="0 0 81 81" fill="none" xmlns="http://www.w3.org/2000/svg">
<path d="M38.7748 80.0151C37.4383 79.5244 36.8954 78.5033 36.5989 77.1564C34.8302 68.9207 33.0051 60.6953 31.1968 52.4679C30.7102 50.2587 32.1803 48.7259 34.3729 49.2041C42.7799 51.0362 51.1862 52.8772 59.5918 54.7273C60.6901 54.9654 61.5526 55.4812 61.8574 56.6067C62.1623 57.7322 61.73 58.6176 60.9094 59.4049C59.502 60.7538 58.1384 62.1508 56.7038 63.5812C56.9022 63.8046 57.0609 63.9988 57.2363 64.1763C58.5226 65.4668 59.8194 66.749 61.0994 68.0457C62.298 69.2589 62.3231 70.706 61.1349 71.9088C58.7349 74.3325 56.3196 76.7416 53.889 79.136C53.5131 79.5077 52.9869 79.7249 52.5296 80.013H51.4354C50.74 79.4868 49.9924 79.017 49.3639 78.4218C48.111 77.2316 46.9082 75.9745 45.6469 74.7028C45.3838 74.9471 45.1917 75.1204 45.0205 75.2896C43.9179 76.3901 42.8467 77.5239 41.7024 78.5806C41.1072 79.1297 40.3847 79.539 39.7207 80.013L38.7748 80.0151ZM59.7296 57.4629L59.5646 57.1225L33.3559 51.3654C35.3042 60.2213 37.217 68.9227 39.1673 77.7829C39.5077 77.4613 39.6998 77.2901 39.8794 77.1105C41.1323 75.8576 42.3852 74.6047 43.6381 73.3518C44.891 72.0989 46.3089 72.0989 47.5597 73.3225C48.8815 74.6151 50.1783 75.9348 51.4896 77.2399C51.6463 77.3966 51.8238 77.5323 51.8739 77.5761L59.5897 69.8812C59.4748 69.758 59.3078 69.5638 59.1282 69.3842C57.8419 68.0937 56.543 66.8116 55.2651 65.5128C54.104 64.3329 54.1124 62.9005 55.2776 61.7123C56.1546 60.8206 57.0317 59.9311 57.9337 59.0645C58.5101 58.5132 59.1282 58.0037 59.7296 57.4733V57.4629Z" fill="#185C82"/>
<path d="M80.0402 15.6159C79.8585 16.3948 79.7123 17.182 79.491 17.9504C77.6012 24.5365 71.4954 28.6669 64.4895 28.1136C58.1645 27.6145 52.7603 22.3147 51.9354 15.7934C50.9874 8.30726 56.4334 1.11768 63.7921 0.132063C71.7 -0.912024 78.8165 4.34391 79.8898 12.0347C79.9298 12.2368 79.98 12.4368 80.0402 12.634V15.6159ZM54.1969 14.0727C54.1953 16.3986 54.884 18.6727 56.1758 20.6069C57.4676 22.5411 59.3043 24.0484 61.4534 24.9379C63.6025 25.8274 65.9673 26.0591 68.2482 25.6036C70.5291 25.1481 72.6234 24.026 74.2661 22.3792C75.9087 20.7325 77.0256 18.6354 77.4754 16.3533C77.9252 14.0713 77.6877 11.7072 76.7928 9.5603C75.8979 7.41342 74.386 5.58041 72.4486 4.29345C70.5112 3.00648 68.2354 2.32347 65.9095 2.33091C64.3694 2.33255 62.8447 2.6376 61.4225 3.22862C60.0003 3.81964 58.7085 4.68506 57.6208 5.77544C56.5331 6.86582 55.6709 8.15981 55.0835 9.58347C54.496 11.0071 54.1947 12.5326 54.1969 14.0727Z" fill="#185C82"/>
<path d="M2.35461 19.9802H48.4134C49.7123 19.9802 50.2552 20.3164 50.2636 21.1266C50.2719 21.9368 49.6872 22.3252 48.3633 22.3252H2.35461V27.1405C2.35461 28.2347 2.35461 29.3289 2.35461 30.4232C2.35461 31.273 1.88686 31.77 1.16435 31.7575C0.477345 31.7471 0.0200359 31.2584 0.0179477 30.4566C0.0179477 24.6473 -0.00711011 18.8401 0.030477 13.0308C0.0450942 10.7087 1.97039 8.90244 4.35508 8.89409C9.78433 8.87738 15.1927 8.89409 20.6094 8.89409H47.4863C47.7467 8.8787 48.0078 8.88429 48.2673 8.91079C48.8812 9.00893 49.255 9.37228 49.2821 10.0092C49.3093 10.6857 48.9355 11.0825 48.2965 11.212C48.012 11.2486 47.7245 11.257 47.4383 11.237H4.93351C3.00612 11.237 2.35879 11.8843 2.35879 13.8076L2.35461 19.9802Z" fill="#185C82"/>
<path d="M0.0104407 53.2051C0.0104407 47.8162 0.0104407 42.4267 0.0104407 37.0364C-0.00854785 36.7771 0.00196061 36.5165 0.0417636 36.2596C0.0814362 35.9979 0.214111 35.7592 0.415466 35.5874C0.61682 35.4156 0.873361 35.3221 1.13805 35.3241C1.76451 35.3053 2.18214 35.6561 2.31578 36.2554C2.36006 36.5378 2.37196 36.8244 2.35128 37.1095C2.35128 47.7592 2.35128 58.4088 2.35128 69.0585C2.35128 70.917 3.0195 71.581 4.89259 71.581H30.2012C30.4351 71.581 30.6711 71.5664 30.9029 71.581C31.2031 71.5957 31.4861 71.7259 31.6926 71.9443C31.8991 72.1628 32.0132 72.4526 32.0111 72.7532C32.0089 73.0538 31.8907 73.342 31.681 73.5574C31.4714 73.7729 31.1866 73.899 30.8862 73.9093C30.6774 73.9281 30.4685 73.9093 30.2597 73.9093H4.8028C1.74154 73.9093 0.012529 72.1803 0 69.1253L0.0104407 53.2051Z" fill="#185C82"/>
<path d="M32.3839 37.5522C38.496 37.5375 43.6747 41.4675 45.2324 47.1369C45.3264 47.4793 45.4538 47.9304 45.3097 48.1914C45.1009 48.5506 44.6832 48.9954 44.3345 49.0016C43.9461 49.0016 43.4345 48.6571 43.186 48.3104C42.8979 47.9095 42.8582 47.3353 42.6786 46.8487C41.761 44.4134 39.9897 42.3945 37.6944 41.1679C35.3991 39.9414 32.7363 39.5907 30.2018 40.1812C25.1004 41.3359 21.5129 46.2369 21.9263 51.4573C22.1083 53.6512 22.955 55.7374 24.3533 57.4376C25.7517 59.1378 27.6353 60.3712 29.7528 60.9731C29.9616 61.0295 30.1579 61.0754 30.3521 61.1506C31.0182 61.4075 31.3252 62.0172 31.1164 62.652C31.0168 62.9382 30.8102 63.1746 30.5399 63.3116C30.2697 63.4487 29.9569 63.4757 29.6672 63.387C27.4496 62.8483 25.4512 61.8585 23.8099 60.2694C19.9509 56.5378 18.5894 52.0128 20.1577 46.8717C21.7259 41.7306 25.3927 38.6986 30.6925 37.7046C31.2531 37.6229 31.8177 37.572 32.3839 37.5522Z" fill="#185C82"/>
<path d="M67.1294 50.313V67.6594C67.1377 67.9457 67.1294 68.2323 67.1043 68.5177C67.0312 69.1838 66.6491 69.5617 65.9746 69.5617C65.3001 69.5617 64.9159 69.188 64.8136 68.5323C64.7867 68.2994 64.7777 68.0649 64.7864 67.8306C64.7864 56.1898 64.7864 44.5475 64.7864 32.9039C64.7864 31.7115 65.1707 31.131 65.9537 31.1226C66.7368 31.1143 67.1315 31.6927 67.1315 32.8788L67.1294 50.313Z" fill="#185C82"/>
<path d="M32.7995 42.7287C33.9741 42.7462 35.1297 43.0283 36.1803 43.554C37.2308 44.0796 38.1494 44.8353 38.8677 45.7649C39.5547 46.6232 39.5735 47.3331 38.9429 47.8113C38.3122 48.2895 37.715 48.0807 37.0406 47.2434C35.4515 45.2763 32.954 44.5705 30.6591 45.4433C29.553 45.859 28.6084 46.6167 27.9628 47.6064C27.3172 48.596 27.0042 49.7659 27.0695 50.9457C27.1042 51.7025 27.2957 52.4439 27.6318 53.1229C27.9678 53.8019 28.4412 54.4037 29.022 54.8902C29.2757 55.073 29.489 55.3061 29.6484 55.5752C29.7757 55.808 29.8125 56.0797 29.7515 56.3379C29.6906 56.5962 29.5364 56.8228 29.3185 56.9742C28.8194 57.3501 28.2974 57.3021 27.8108 56.922C26.3206 55.7901 25.2879 54.1592 24.902 52.3281C23.812 47.377 27.6187 42.7058 32.7995 42.7287Z" fill="#185C82"/>
<path d="M19.4312 14.7702C19.691 14.769 19.9506 14.7857 20.2081 14.8203C20.7614 14.9247 21.1686 15.3006 21.0893 15.8331C21.0245 16.2507 20.7155 16.8646 20.3876 16.9628C19.7355 17.1231 19.0559 17.1373 18.3976 17.0046C17.8171 16.9106 17.579 16.3948 17.6375 15.808C17.6447 15.5568 17.744 15.3169 17.9165 15.1341C18.089 14.9512 18.3226 14.8381 18.573 14.8161C18.858 14.7952 19.1442 14.7952 19.4292 14.8161L19.4312 14.7702Z" fill="#185C82"/>
<path d="M7.66243 14.7953C7.89631 14.7953 8.13227 14.7765 8.36406 14.7953C8.99051 14.86 9.37056 15.2129 9.40814 15.8519C9.44991 16.5222 9.11371 16.9607 8.45176 17.0651C8.01409 17.1285 7.57063 17.1418 7.12995 17.1048C6.32809 17.0505 5.87704 16.5702 5.9209 15.8644C5.95639 15.1941 6.39909 14.8203 7.19468 14.7806C7.34921 14.7806 7.50582 14.7806 7.66243 14.7806V14.7953Z" fill="#185C82"/>
<path d="M13.5831 14.8015C13.8153 14.7858 14.0484 14.7858 14.2806 14.8015C14.557 14.8193 14.8156 14.9438 15.0019 15.1487C15.1882 15.3537 15.2874 15.6231 15.2787 15.8999C15.3017 16.47 15.0031 16.944 14.4184 17.0275C13.8579 17.1148 13.2879 17.1239 12.7249 17.0546C12.0692 16.9732 11.7163 16.4992 11.7664 15.8519C11.8165 15.2045 12.2133 14.8245 12.8857 14.7869C13.1175 14.7723 13.3513 14.7869 13.5831 14.7869V14.8015Z" fill="#185C82"/>
<path d="M61.9006 17.2656C61.9006 16.3656 62.3183 15.8519 62.9677 15.8039C63.6171 15.7558 64.1162 16.2215 64.2477 17.0797C64.3918 18.0424 65.0037 18.6354 65.8786 18.6667C66.3115 18.6823 66.7339 18.5313 67.0589 18.2449C67.3839 17.9585 67.5868 17.5584 67.6258 17.127C67.6649 16.6956 67.5371 16.2656 67.2688 15.9255C67.0006 15.5854 66.6121 15.361 66.1835 15.2985C65.6913 15.2567 65.2028 15.1792 64.7218 15.0667C63.9706 14.835 63.304 14.388 62.8044 13.7812C62.3048 13.1743 61.9942 12.4342 61.9111 11.6526C61.7586 9.94654 62.5542 8.38041 64.0682 7.65372C64.6424 7.37808 64.8241 7.05024 64.7614 6.46555C64.7255 6.15496 64.7389 5.84064 64.8011 5.53423C64.9348 4.92448 65.3524 4.5674 65.9705 4.59664C66.5886 4.62587 67.1315 5.01427 67.0626 5.67622C66.9436 6.81637 67.3299 7.46996 68.3656 8.03168C69.4452 8.61637 69.89 9.76904 69.9881 10.999C70.0466 11.7298 69.6248 12.2728 68.9858 12.3563C68.28 12.4461 67.7768 12.0514 67.6703 11.2516C67.5554 10.3934 67.1733 9.76904 66.3004 9.55605C65.8754 9.46364 65.4311 9.53685 65.0582 9.76074C64.6853 9.98464 64.4119 10.3423 64.2937 10.7609C64.1774 11.1798 64.2276 11.6274 64.4339 12.01C64.6402 12.3926 64.9866 12.6806 65.4004 12.8136C65.6501 12.8854 65.9073 12.9281 66.1668 12.941C67.0574 12.9873 67.9073 13.3287 68.5825 13.9113C69.2577 14.4939 69.7199 15.2846 69.8963 16.1589C70.0878 17.0312 69.9785 17.9427 69.5861 18.745C69.1937 19.5473 68.5412 20.1932 67.735 20.5774C67.2171 20.8217 67.0313 21.0995 67.0918 21.632C67.119 21.9174 67.119 22.2048 67.0918 22.4902C67.0375 23.1584 66.6575 23.5468 65.9955 23.5865C65.3691 23.6241 64.7761 23.2503 64.8471 22.6781C65.0245 21.2603 64.2477 20.6129 63.2162 19.9113C62.2995 19.2828 61.9424 18.222 61.9006 17.2656Z" fill="#185C82"/>
</svg>
