<svg width="51" height="50" viewBox="0 0 51 50" fill="none" xmlns="http://www.w3.org/2000/svg">
<path d="M3.41379 49.9974C2.1874 49.4494 1.91602 48.9393 2.13912 47.5798C2.24611 46.9275 2.38049 46.2673 2.46268 45.6072C2.46997 45.5115 2.45827 45.4154 2.42827 45.3242C2.39827 45.2331 2.35055 45.1488 2.28786 45.0762C1.74251 44.5152 1.16454 43.9868 0.599613 43.4453C0.0777439 42.9404 -0.14144 42.3429 0.0947053 41.6318C0.330851 40.9208 0.877507 40.5411 1.61465 40.4381C2.37136 40.3311 3.13198 40.2502 3.88217 40.1106C4.10118 40.0589 4.29184 39.9248 4.41447 39.7362C4.79283 39.0695 5.08638 38.3545 5.47908 37.6982C5.69363 37.3598 5.97894 37.0718 6.31538 36.8541C6.53848 36.7067 6.65198 36.601 6.67155 36.3323C6.93249 32.6531 9.36178 29.4906 12.9235 28.5277C14.9693 27.9745 17.0176 27.4383 19.0555 26.8669C19.2883 26.7874 19.4802 26.619 19.5891 26.3985C20.0259 25.397 20.2353 24.3111 20.2023 23.219C20.1828 22.9897 20.0857 22.7739 19.927 22.6071C19.516 22.1909 19.0607 21.8243 18.6223 21.4329C17.8082 20.6984 17.4625 19.7682 17.4834 18.6866C17.4834 18.4465 17.5121 18.2495 17.1846 18.1243C15.923 17.6441 15.1637 16.7191 15.0254 15.3636C14.8819 13.948 15.4703 12.8704 16.6719 12.1215C16.7397 12.0797 16.8023 12.0341 16.891 11.9767C16.1631 10.8057 15.7897 9.44902 15.816 8.07047C15.8408 6.18522 16.6536 4.73443 18.2349 3.70374C18.4503 3.56546 18.6383 3.38853 18.7893 3.18187C20.2993 1.12831 22.325 0.0693546 24.8665 0.00499079C26.4316 -0.0401547 27.9904 0.221344 29.455 0.774748C29.8464 0.923481 30.2183 1.07352 30.2796 1.55755C30.3409 2.04158 30.0382 2.29991 29.6807 2.52822C29.6018 2.58809 29.5277 2.65395 29.4589 2.72523C31.3859 3.43236 32.8211 4.66136 33.5961 6.52574C34.371 8.39012 34.4571 10.2506 33.3156 12.0667C33.3925 12.1319 33.4682 12.2089 33.553 12.2715C34.6541 13.0726 35.1356 14.1633 34.9451 15.498C34.7664 16.7557 34.0318 17.6376 32.8472 18.0956C32.5602 18.2065 32.4884 18.35 32.4988 18.6279C32.5471 19.8477 32.0905 20.8458 31.1511 21.6286C30.8628 21.8674 30.6123 22.157 30.3057 22.3645C29.8634 22.6632 29.6794 23.0481 29.7838 23.5595C29.9769 24.5106 30.1635 25.4644 30.4087 26.4024C30.4583 26.5942 30.7284 26.8069 30.9306 26.8656C32.9333 27.4266 34.9451 27.9537 36.9517 28.4964C40.6713 29.5023 43.0314 32.3661 43.308 36.2214C43.3315 36.5384 43.4072 36.7145 43.7177 36.8854C44.0478 37.0851 44.321 37.3664 44.5109 37.7022C44.9023 38.3545 45.1907 39.059 45.5625 39.7192C45.6883 39.9144 45.8838 40.0544 46.1092 40.1106C46.8593 40.2502 47.6187 40.3415 48.3767 40.4355C49.226 40.5398 49.7179 41.0552 50.0049 41.8236L49.8588 42.7369C49.5574 43.1192 49.2652 43.5106 48.9351 43.8667C48.5502 44.2842 48.0988 44.6417 47.7152 45.0605C47.582 45.2243 47.517 45.4332 47.5339 45.6437C47.6343 46.3952 47.7857 47.1402 47.9135 47.8877C48.044 48.6705 47.7557 49.349 47.1229 49.7325C46.982 49.8173 46.8372 49.8969 46.695 49.9778L45.8052 49.9961C44.9258 49.5408 44.0517 49.075 43.1606 48.6418C42.9888 48.5844 42.8013 48.597 42.6387 48.6771C41.7959 49.0841 40.9648 49.5173 40.1312 49.9426L39.2401 49.9857C37.561 49.3411 37.8676 48.0091 38.1742 46.6914H33.5817C33.6039 46.8557 33.6222 46.9836 33.6404 47.1115C33.7826 48.1056 33.4473 48.9158 32.6384 49.4899C32.3227 49.7143 31.9248 49.8239 31.5621 49.9817L30.7597 49.9909C30.4309 49.8604 30.093 49.7404 29.7773 49.5812C28.3421 48.8597 26.907 48.1356 25.4888 47.3867C25.3488 47.2992 25.1876 47.2515 25.0225 47.249C24.8573 47.2465 24.6947 47.2891 24.5521 47.3724C22.809 48.2491 21.0529 49.0998 19.3008 49.9583L18.3562 49.9909C18.2101 49.9295 18.0653 49.8604 17.9178 49.8095C17.4597 49.6407 17.0625 49.3387 16.7774 48.9422C16.4924 48.5458 16.3325 48.0731 16.3183 47.5851C16.3295 47.2912 16.3556 46.9982 16.3966 46.707H11.8459C12.1799 49.0646 12.0912 49.3164 10.7408 50H9.95802C9.07998 49.5512 8.20585 49.0946 7.31998 48.664C7.24375 48.6304 7.16164 48.6122 7.07835 48.6104C6.99506 48.6086 6.91224 48.6233 6.83464 48.6536C5.96703 49.0802 5.10986 49.5329 4.25008 49.9765L3.41379 49.9974ZM35.8218 36.3218C35.8375 35.7439 35.5061 35.4242 34.9686 35.3472C33.2138 35.098 31.4616 34.8345 29.7042 34.6062C28.9514 34.5096 28.4648 34.1261 28.1386 33.4594C27.4002 31.976 26.633 30.5056 25.8907 29.0235C25.695 28.6321 25.4575 28.3216 24.9774 28.3281C24.5286 28.3281 24.2964 28.6334 24.1085 29.0065C23.3413 30.5304 22.5585 32.0464 21.7888 33.5729C21.6645 33.8481 21.4708 34.0863 21.2268 34.2643C20.9828 34.4422 20.6968 34.5537 20.3967 34.5879C18.6406 34.8319 16.8884 35.098 15.1323 35.3355C14.7175 35.3916 14.3639 35.4881 14.2073 35.9187C14.0416 36.3779 14.3378 36.648 14.6274 36.922C15.8577 38.0844 17.075 39.2599 18.3184 40.4081C18.8794 40.9299 19.0385 41.5314 18.9042 42.2607C18.5949 43.9385 18.2857 45.6176 18.0222 47.3032C17.9989 47.5984 18.0926 47.8908 18.2831 48.1174C18.5806 48.4501 18.9785 48.3587 19.3582 48.163C20.8612 47.3894 22.3837 46.6522 23.871 45.8524C24.2116 45.6687 24.5922 45.572 24.9792 45.5709C25.3661 45.5697 25.7474 45.6642 26.089 45.8459C27.6063 46.6561 29.1497 47.4115 30.6801 48.1943C31.0298 48.3744 31.3651 48.3887 31.6834 48.1343C32.0018 47.8799 32.0292 47.5864 31.96 47.2145C31.6482 45.5367 31.3598 43.855 31.0585 42.1746C30.928 41.4583 31.1302 40.8803 31.6756 40.3794C32.932 39.2221 34.1675 38.0414 35.4004 36.8567C35.5574 36.692 35.6984 36.5129 35.8218 36.3218ZM32.521 13.6532C32.5132 13.7575 32.5014 13.8502 32.4975 13.9428C32.4727 14.6147 32.1766 14.9865 31.6625 14.9865C31.1485 14.9865 30.8354 14.6043 30.8328 13.8984C30.8328 13.2161 30.8393 12.5324 30.8328 11.8488C30.8262 11.1652 30.4962 10.8351 29.8086 10.8299C28.9945 10.8233 28.1817 10.8129 27.3676 10.8299C25.7015 10.8677 24.1646 10.4385 22.6903 9.67391C22.1684 9.40515 21.5631 9.28251 20.9786 9.18205C20.3054 9.07246 19.8135 9.42994 19.5434 10.0327C19.3826 10.3519 19.281 10.6975 19.2434 11.0529C19.1834 12.0745 19.1873 13.1 19.1546 14.1228C19.139 14.633 18.8063 14.9761 18.3471 14.9839C17.8878 14.9918 17.546 14.6565 17.499 14.1515C17.4834 13.9858 17.4795 13.8189 17.4677 13.5958C16.9798 13.9154 16.7449 14.3029 16.694 14.7974C16.5936 15.7876 17.2016 16.5026 18.2596 16.6565C18.9459 16.7557 19.1481 16.984 19.1546 17.682C19.1546 18.0068 19.1677 18.3343 19.1546 18.6579C19.132 18.9756 19.1877 19.2941 19.3169 19.5853C19.4461 19.8765 19.6449 20.1315 19.8957 20.3279C20.5337 20.8576 21.1364 21.4303 21.7849 21.947C23.8462 23.5908 23.2944 23.3208 25.6989 23.3077C26.1641 23.3042 26.6164 23.1545 26.9918 22.8798C27.9638 22.1674 28.851 21.3429 29.806 20.6071C30.6031 19.9926 30.8993 19.228 30.8497 18.2313C30.7897 16.9266 30.8354 16.9266 32.1022 16.5913C32.4094 16.506 32.6855 16.3341 32.8974 16.096C33.1094 15.8579 33.2482 15.5637 33.2973 15.2488C33.3912 14.5495 33.1212 13.9754 32.5262 13.6532H32.521ZM11.8928 44.9979C13.5198 44.9979 15.0097 45.0044 16.4996 44.9822C16.5988 44.9822 16.7606 44.7657 16.7815 44.63C16.9485 43.8015 17.0711 42.9652 17.2407 42.1367C17.279 42.007 17.2774 41.8687 17.2362 41.7399C17.1951 41.611 17.1162 41.4975 17.0098 41.414C15.7873 40.2906 14.5831 39.149 13.3737 38.0127C12.6052 37.2912 12.2973 36.4197 12.6326 35.4033C12.9679 34.387 13.7403 33.8377 14.7997 33.6903C16.4957 33.4581 18.1827 33.2271 19.8709 32.9766C19.9623 32.9662 20.0508 32.9377 20.1312 32.8929C20.2115 32.8482 20.2823 32.7879 20.3393 32.7157C20.899 31.672 21.4274 30.6113 21.9519 29.5845C21.323 29.2544 20.7294 28.9204 20.1136 28.6334C19.8951 28.5239 19.6474 28.4869 19.4065 28.5277C17.4077 29.0378 15.4102 29.5558 13.4232 30.1142C10.703 30.8774 9.01083 32.6479 8.45112 35.4268C8.32979 36.0322 8.25803 36.7315 8.4433 37.2925C8.7238 38.1458 9.23263 38.9272 9.68535 39.714C9.81974 39.9173 10.0279 40.0605 10.2659 40.1132C11.0161 40.2554 11.7793 40.3285 12.5347 40.4433C13.448 40.5829 14.0456 41.1987 14.1004 42.048C14.1175 42.3088 14.0745 42.5701 13.9747 42.8116C13.875 43.0532 13.7211 43.2687 13.525 43.4414C13.011 43.932 12.5008 44.416 11.8928 44.9979ZM28.0499 29.6028C28.5626 30.6113 29.0806 31.6602 29.6338 32.6896C29.6928 32.7696 29.7672 32.8371 29.8525 32.8882C29.9378 32.9392 30.0324 32.9729 30.1309 32.9871C31.142 33.1463 32.1583 33.2728 33.1733 33.4137C33.8974 33.5142 34.6254 33.6016 35.3456 33.7242C36.362 33.8977 37.0769 34.4692 37.3809 35.462C37.6849 36.4549 37.3913 37.2886 36.6581 37.9905C35.4335 39.1569 34.2023 40.318 32.9646 41.474C32.6841 41.7349 32.6632 41.9776 32.8341 42.4394C33.0466 43.0095 33.1587 43.612 33.1655 44.2203C33.1655 44.9066 33.3208 45.0266 33.7513 45.0122C34.418 44.9888 35.086 45.0057 35.7527 45.0057H38.1115C37.5179 44.4408 37.0339 43.962 36.5368 43.5093C35.9679 42.9874 35.7409 42.3559 35.9875 41.6162C36.2341 40.8764 36.8134 40.5281 37.5714 40.4342C38.3294 40.3402 39.0574 40.2502 39.7893 40.1158C39.9985 40.0679 40.1809 39.9407 40.2982 39.7609C40.7509 38.9534 41.1684 38.1262 41.5885 37.3016C41.6405 37.1841 41.6672 37.057 41.6668 36.9285C41.779 33.7842 39.8141 31.0392 36.7964 30.1873C34.7024 29.5949 32.5915 29.0574 30.487 28.5042C30.3542 28.4591 30.2102 28.4591 30.0774 28.5042C29.4002 28.8487 28.7388 29.2205 28.0499 29.5962V29.6028ZM27.8359 1.95678C27.1184 1.86154 26.4778 1.74803 25.832 1.69584C23.3244 1.49101 21.3061 2.3247 19.9205 4.5035C19.7585 4.72262 19.544 4.89757 19.2969 5.01232C17.7587 5.81208 16.9485 8.31444 17.7926 9.73131C18.7058 7.97262 19.6987 7.32681 21.3922 7.55382C22.1286 7.6653 22.842 7.89575 23.5044 8.23616C24.7386 8.85197 26.0055 9.21336 27.3884 9.18075C28.2339 9.15987 29.0845 9.17161 29.926 9.18075C30.3344 9.17599 30.7379 9.27066 31.1015 9.45659C31.4652 9.64251 31.7782 9.91412 32.0135 10.248C32.0735 10.3276 32.144 10.4019 32.2222 10.4972C32.8746 8.95895 32.3331 6.85191 31.0232 5.63465C30.1569 4.82836 29.1276 4.34433 27.9899 4.05078C27.2788 3.86812 27.0675 3.36713 27.4002 2.71479C27.5176 2.47473 27.6572 2.25816 27.8359 1.95026V1.95678ZM46.3062 48.3679C46.1379 47.4115 46.01 46.5635 45.8365 45.7233C45.6943 45.0409 45.8495 44.5126 46.3662 44.0129C46.9833 43.4192 47.5143 42.7369 48.0414 42.1407C47.4725 42.0467 46.7432 41.8641 46.0035 41.8171C44.9924 41.7532 44.3557 41.3018 43.9852 40.3546C43.7177 39.6709 43.3328 39.0329 42.9571 38.2958C42.473 39.2234 42.0321 40.0519 41.608 40.8882C41.5025 41.1169 41.3382 41.3135 41.132 41.4581C40.9257 41.6027 40.6848 41.6901 40.4338 41.7114C39.5206 41.8275 38.6217 41.9724 37.5871 42.1263C38.3164 42.8439 38.957 43.4845 39.608 44.1133C39.8112 44.2888 39.962 44.5171 40.0435 44.7729C40.125 45.0287 40.1341 45.3021 40.0698 45.5628C39.8846 46.4643 39.7541 47.3763 39.5871 48.3639C40.5004 47.8943 41.3458 47.4846 42.1664 47.0358C42.4028 46.8935 42.6734 46.8183 42.9492 46.8183C43.2251 46.8183 43.4957 46.8935 43.7321 47.0358C44.5423 47.4794 45.372 47.8864 46.3062 48.3679ZM7.076 38.2919C6.61024 39.1869 6.17317 40.001 5.75959 40.8269C5.49865 41.3487 5.10725 41.6736 4.49928 41.7114C4.46405 41.7114 4.40404 41.7114 4.36881 41.7232C3.50512 41.8536 2.69883 41.975 1.69423 42.1276C2.38832 42.8073 2.97151 43.4205 3.60036 43.9829C4.16267 44.4865 4.30749 45.0579 4.14962 45.7807C3.96697 46.6105 3.85216 47.4559 3.6956 48.3679C4.55407 47.9282 5.34862 47.5564 6.10663 47.1219C6.74983 46.7514 7.33433 46.7305 7.98536 47.1075C8.73946 47.5433 9.5327 47.9112 10.412 48.36C10.2424 47.3593 10.1172 46.4617 9.93323 45.5772C9.80277 44.9666 9.99716 44.523 10.4199 44.0898C11.0422 43.4519 11.6123 42.763 12.1681 42.1328C11.4545 42.0141 10.5803 41.8354 9.69839 41.7323C8.98343 41.6488 8.55941 41.2874 8.26978 40.652C7.9123 39.8797 7.50002 39.1282 7.076 38.2919ZM21.126 27.3326L22.6916 28.0398C23.8658 26.238 26.0838 26.2028 27.301 28.0398L28.8588 27.3209C28.5822 26.2184 28.3369 25.2204 28.093 24.2771C26.0211 25.3208 23.9585 25.3287 21.8958 24.2771C21.6596 25.223 21.4065 26.2224 21.126 27.3313V27.3326Z" fill="#8528B0"/>
</svg>
