<svg width="49" height="54" viewBox="0 0 49 54" fill="none" xmlns="http://www.w3.org/2000/svg">
<path fill-rule="evenodd" clip-rule="evenodd" d="M5.83972 23.7813C8.09316 22.9296 10.4645 21.7977 12.2931 20.1589C14.465 18.2123 15.3482 15.7055 15.9414 13.0667C16.703 9.6765 17.0073 6.06511 17.9306 2.66942C18.2725 1.40839 18.9305 0.931727 19.2129 0.720182C19.9264 0.185828 20.6477 0.0429958 21.3263 0.0965687C22.1305 0.158383 23.2353 0.481172 23.9619 1.91115C24.0655 2.11583 24.2001 2.42766 24.2908 2.85487C24.3568 3.16806 24.3996 4.14747 24.4695 4.55133C24.6443 5.54586 24.7907 6.54042 24.9279 7.54045C25.3851 10.8688 25.6481 13.6958 27.092 16.7536C29.0515 20.9047 31.0149 23.4447 33.6775 24.5697C36.2522 25.6577 39.3305 25.453 43.2638 24.5999C43.638 24.5038 44.0083 24.4213 44.3749 24.354C46.109 24.0326 47.7667 25.2401 48.1074 27.0725C48.448 28.9036 47.3458 30.688 45.6273 31.0905C45.2686 31.1742 44.915 31.2539 44.5653 31.3267C39.2503 32.7223 33.0973 37.7033 29.5216 42.0647C28.4195 43.4095 26.8058 47.1692 25.1598 49.5676C23.945 51.3368 22.5799 52.5031 21.4339 52.9152C20.6659 53.1926 20.0183 53.1502 19.4835 53.01C18.7064 52.8068 18.0615 52.3602 17.5668 51.65C17.2974 51.2613 17.0474 50.7407 16.9282 50.0759C16.8713 49.7557 16.8648 48.9426 16.8661 48.5745C16.5306 47.3506 16.1202 46.1554 15.8209 44.9205C15.1074 41.974 13.7073 40.1086 12.0445 37.6442C10.4891 35.3379 8.81849 33.8887 6.36949 32.732C6.0509 32.6496 3.48015 31.982 2.5723 31.5988C1.24614 31.0369 0.6141 30.096 0.38487 29.589C-0.00494956 28.7291 -0.0450617 27.9778 0.0326433 27.3513C0.147906 26.4269 0.539023 25.6357 1.23319 24.9969C1.66315 24.5999 2.30552 24.2139 3.16545 24.0258C3.82983 23.8788 5.59237 23.7936 5.83972 23.7813ZM20.921 18.9788C21.0401 19.2604 21.167 19.5434 21.3017 19.8292C24.1717 25.9091 27.3809 29.3034 31.2816 30.9504L31.4124 31.004C28.8029 33.0589 26.4406 35.3556 24.6352 37.5577C23.8919 38.4643 22.9076 40.3476 21.8443 42.2789C20.8783 38.9479 19.2982 36.5934 17.3117 33.6469C15.7937 31.3982 14.2034 29.7059 12.2491 28.3268C13.7656 27.5011 15.2122 26.534 16.4724 25.405C18.5704 23.5244 19.9574 21.3457 20.921 18.9788Z" fill="#1400FF"/>
</svg>
