<svg width="50" height="50" viewBox="0 0 47 50" fill="none" xmlns="http://www.w3.org/2000/svg">
<path d="M20.4476 0C21.3408 0.22583 22.2585 0.3833 23.1236 0.689697C27.0089 2.06909 29.7898 5.91553 29.9082 10.0281C29.9399 11.1182 29.9082 12.2095 29.9338 13.2996C29.9366 13.5207 29.9999 13.7369 30.1169 13.9246C31.6519 16.1523 30.4829 18.9954 27.8216 19.4788L27.5141 19.5361C27.198 20.4285 26.954 21.3025 26.5879 22.1252C26.1523 23.1201 25.4506 23.9368 24.6221 24.6436C24.4804 24.7627 24.3878 24.9301 24.3622 25.1135C24.3341 25.8594 24.35 26.6089 24.35 27.4023C25.3738 27.8027 26.3963 28.2043 27.4213 28.5999C27.8899 28.7817 28.3975 29.1479 28.8258 29.0723C29.2541 28.9966 29.5751 28.4619 29.9521 28.1384C31.2542 27.0231 32.8176 26.2562 34.4963 25.9094C35.0723 25.7874 35.4859 25.9998 35.5701 26.4563C35.6507 26.886 35.3761 27.2131 34.805 27.345C31.8228 28.0322 29.6983 29.7693 28.5073 32.5867C26.2218 37.9944 30.0754 44.1846 35.935 44.5557C40.2339 44.8267 44.1106 42.0093 45.0356 37.9358C46.0179 33.6182 43.8507 29.4202 39.7727 27.7722C39.2846 27.5732 38.7464 27.4683 38.2327 27.3206C37.7446 27.1814 37.4835 26.8433 37.5616 26.4514C37.647 26.0168 38.0192 25.7849 38.5378 25.8875C40.7763 26.333 42.8002 27.5183 44.2844 29.2529C45.7687 30.9875 46.6271 33.1708 46.7218 35.4521C46.8165 37.7334 46.1421 39.9804 44.8068 41.8322C43.4715 43.6839 41.5529 45.0331 39.359 45.6628C39.2834 45.6848 39.2077 45.7153 39.093 45.7544C39.093 46.4478 39.0552 47.1484 39.1028 47.843C39.1723 48.8745 38.8038 49.6082 37.8227 49.9963H1.31414C0.468508 49.679 -6.56391e-05 49.1101 0.0035951 48.1653C0.0145773 44.8962 -0.0195926 41.626 0.0157946 38.3569C0.0511818 34.939 1.8364 32.4109 5.01881 31.1743C8.07553 29.9878 11.131 28.7988 14.1938 27.6343C14.5941 27.4817 14.804 27.312 14.7564 26.8408C14.7172 26.3685 14.7156 25.8938 14.7515 25.4211C14.7652 25.2855 14.7416 25.1487 14.6834 25.0254C14.6251 24.9022 14.5343 24.7972 14.4208 24.7217C13.5435 24.0503 12.8186 23.2263 12.3684 22.2192C11.9876 21.3647 11.7241 20.4651 11.3922 19.5337C11.2933 19.5154 11.1017 19.4812 10.9114 19.4446C8.47089 18.9746 7.31287 16.0754 8.74911 14.0735C8.89093 13.8636 8.97202 13.6186 8.98339 13.3655C9.04319 11.8884 8.9236 10.387 9.14569 8.93799C9.75581 4.94751 12.0365 2.19848 15.7741 0.704344C16.6368 0.358885 17.5861 0.229493 18.4952 0.0012219L20.4476 0ZM11.2262 30.332C9.06515 31.1865 6.88823 31.9189 4.82479 32.8882C2.71498 33.8843 1.53012 35.6665 1.49718 38.0518C1.45081 41.4026 1.48009 44.7546 1.46789 48.1067C1.46789 48.4595 1.62164 48.5437 1.94379 48.5413C3.26165 48.5278 4.5783 48.5413 5.89617 48.5413H6.78085V47.9443C6.78085 45.3573 6.78085 42.7706 6.78085 40.1843C6.77165 40.006 6.78477 39.8272 6.81989 39.6521C6.91385 39.2944 7.19329 39.0515 7.53374 39.1296C7.78633 39.1882 8.02184 39.4446 8.19633 39.6655C8.28785 39.7803 8.2427 40.011 8.2427 40.188C8.2427 42.7922 8.2427 45.3963 8.2427 48.0005V48.5156H15.3201C15.3397 48.4302 15.3555 48.3691 15.3665 48.3069C15.9473 44.895 16.4904 41.4709 17.1346 38.0749C17.3006 37.196 16.9016 36.6736 16.4537 36.0596C16.3659 36.1157 16.2988 36.1572 16.2341 36.2012C15.1615 36.908 14.4037 36.7053 13.8241 35.5579C13.3596 34.6277 12.8963 33.6971 12.4343 32.7661C12.0426 31.9604 11.6435 31.1646 11.2262 30.332ZM12.9626 12.8662C12.9504 13.0139 12.9321 13.1238 12.9321 13.2324C12.9321 15.0537 12.9236 16.875 12.9407 18.6975C12.9446 19.1195 12.9941 19.5398 13.0883 19.9512C13.7192 22.6904 15.746 24.5093 18.649 24.9658C22.1608 25.5176 25.6654 22.8528 25.907 19.3066C26.0583 17.0728 25.9729 14.8218 25.9888 12.5781C25.9945 12.4662 25.9622 12.3557 25.8972 12.2644C25.1907 11.4844 24.4732 10.7141 23.7557 9.93774C20.4354 12.0288 16.8625 13.0237 12.9626 12.8662ZM28.4512 12.6794C28.4512 11.7993 28.4707 10.9705 28.4512 10.144C28.3292 5.55054 24.5464 1.70166 19.9668 1.47705C14.5977 1.22192 9.57521 5.54566 10.5319 12.7612C10.8809 12.6282 11.4105 12.5879 11.5081 12.3572C11.8876 11.5027 12.5319 11.4136 13.3385 11.3806C14.6347 11.3517 15.9277 11.2379 17.2091 11.04C19.2469 10.6934 21.1139 9.84985 22.8686 8.76465C23.6776 8.26538 24.2682 8.35083 24.9137 9.02832C25.5592 9.70581 26.1999 10.3711 26.7941 11.0767C27.1211 11.4685 27.3481 11.9446 27.6202 12.3828L27.4982 12.4719L28.4512 12.6794ZM30.8588 48.5217C30.8588 47.3987 30.8161 46.3245 30.8734 45.2563C30.9112 44.5703 30.666 44.1577 30.1413 43.7207C27.3347 41.3843 26.123 38.3557 26.4805 34.7302C26.5672 33.8379 26.8466 32.9639 27.0418 32.0239C26.943 32.2131 26.8637 32.3608 26.788 32.5122C26.2426 33.6011 25.7093 34.6973 25.1492 35.7788C24.7099 36.626 23.8863 36.842 23.0968 36.3477C22.9467 36.2549 22.8027 36.1548 22.6685 36.0669C22.0364 36.6882 21.7691 37.3621 22.0047 38.2642C22.2487 39.2041 22.3634 40.1794 22.5037 41.145C22.5794 41.6711 22.3134 42.03 21.8826 42.0789C21.4787 42.1252 21.1602 41.8469 21.0614 41.3464C21.0126 41.1023 20.9833 40.8655 20.9394 40.625C20.7783 39.6851 20.6172 38.7451 20.4574 37.8174H18.6392C18.0291 41.3916 17.4336 44.9414 16.8284 48.5156H22.2585C22.2243 48.2825 22.1975 48.0762 22.1645 47.8699C22.0083 46.9238 21.8436 45.979 21.6947 45.0317C21.6117 44.5044 21.8363 44.137 22.2633 44.0552C22.6904 43.9734 23.0089 44.2566 23.1175 44.7876C23.1822 45.0891 23.2261 45.3979 23.2774 45.6995C23.4401 46.6394 23.6028 47.5798 23.7655 48.5205L30.8588 48.5217ZM16.2707 25.8545C16.0535 27.2144 16.1487 27.5635 16.9309 28.54L18.1889 30.0928L19.5495 31.7688C20.6477 30.4102 21.7155 29.1003 22.7734 27.7856C22.8396 27.696 22.8766 27.5882 22.8796 27.4768C22.8893 26.9287 22.8796 26.3782 22.8796 25.7678C20.6758 26.7188 18.4928 26.6846 16.2707 25.8545ZM15.2396 35.0977L18.4794 32.7942C17.4312 31.4978 16.4342 30.2576 15.4287 29.0295C15.3506 28.9343 15.1456 28.844 15.0456 28.8806C14.239 29.1687 13.4434 29.491 12.6112 29.812L15.2396 35.0977ZM20.6087 32.7905L23.8545 35.0977C24.7392 33.3252 25.6056 31.5869 26.4903 29.812C25.6544 29.4885 24.8576 29.1711 24.0498 28.8794C23.9863 28.8687 23.9212 28.8734 23.8599 28.8929C23.7986 28.9124 23.7428 28.9463 23.6971 28.9917C22.6721 30.2332 21.663 31.4844 20.6087 32.7905ZM32.3536 48.5376C34.0302 48.5376 35.6812 48.5376 37.3334 48.5266C37.4322 48.5266 37.6128 48.374 37.6153 48.2825C37.6372 47.5281 37.6287 46.7725 37.6287 46.0925C36.6769 46.0266 35.7983 46.0291 34.9381 45.8899C34.0778 45.7507 33.2297 45.4663 32.3536 45.2405V48.5376ZM21.3591 35.127C20.8503 34.7607 20.3146 34.3726 19.7655 34.0027C19.7096 33.9682 19.6466 33.947 19.5812 33.9407C19.5159 33.9343 19.4499 33.943 19.3884 33.9661C18.8125 34.3494 18.2524 34.7595 17.6947 35.1575C18.2292 36.1768 18.3463 36.3318 18.7161 36.3147C19.7362 36.2683 20.9833 36.7493 21.3591 35.127ZM27.4799 18.0371C28.6196 17.8821 29.3518 17.0605 29.3347 15.9875C29.3281 15.4863 29.134 15.0056 28.7907 14.6405C28.4473 14.2753 27.9797 14.0521 27.4799 14.0149V18.0371ZM11.4568 14.0796C10.488 14.1003 9.61426 14.9976 9.58986 15.9778C9.57152 16.495 9.75687 16.9988 10.106 17.3807C10.4552 17.7626 10.9402 17.9922 11.4568 18.02V14.0796Z" fill="#2242FF"/>
</svg>
