<svg width="84" height="103" viewBox="0 0 84 103" fill="none" xmlns="http://www.w3.org/2000/svg">
<path d="M18.1004 63.0351C28.3999 60.9333 37.4829 54.3589 42.6104 45.1492C47.7488 35.9222 48.2381 24.3821 44.3758 14.6048C42.9023 10.8687 40.3483 5.06895 35.3838 7.42615C30.8346 9.58431 31.3069 15.5731 31.6073 19.7579C32.3831 30.6011 35.8209 41.1723 41.2621 50.5572C47.4256 61.1851 56.225 70.1166 66.795 76.3736C67.9676 77.0678 68.8045 75.1139 67.6402 74.4294C51.1952 64.7492 39.1778 47.9712 35.0157 29.3566C34.0437 25.0124 33.4214 20.5131 33.392 16.0537C33.3744 13.5536 33.647 10.22 36.3073 9.05729C39.4351 7.69276 41.0243 11.4981 42.0783 13.7973C46.0654 22.5016 46.2398 32.8136 42.5248 41.6344C38.2169 51.8627 28.7706 59.4984 17.9799 61.8647C17.2503 62.0285 17.3576 63.1866 18.1004 63.0351Z" fill="#CD3AE5"/>
<path d="M17.6593 63.5268C29.0758 62.1019 39.5072 55.1547 44.9147 44.9304C50.0435 35.2303 50.7404 22.1211 45.2777 12.3783C44.1534 10.3716 42.6591 8.46654 40.6517 7.27553C39.1342 6.37705 36.6771 5.50005 35.02 6.54559C33.1214 7.73925 32.4736 11.2164 32.0215 13.2525C31.4357 15.8888 31.2747 18.609 31.4247 21.2998C32.0813 33.0064 38.1614 44.2182 44.7422 53.6313C52.8222 65.1853 63.4736 75.2943 75.7626 82.2556C76.6361 82.7499 77.5321 81.2714 76.6717 80.7322C67.147 74.7784 58.5565 67.7463 51.2784 59.151C44.3758 50.9951 38.2692 41.5322 34.9413 31.3193C33.3923 26.5624 32.4903 21.4758 32.9983 16.4649C33.2257 14.2171 33.6188 11.595 34.6862 9.57683C36.8416 5.51471 40.9765 8.763 42.8178 11.1802C49.0097 19.2896 48.7852 32.1201 45.1778 41.2031C40.612 52.6937 29.7258 60.8836 17.552 62.5584C16.9363 62.642 17.037 63.6042 17.6593 63.5268Z" fill="#CD3AE5"/>
<path d="M70.7986 83.8622C71.6909 80.8493 72.9415 78.0749 74.3226 75.2622C73.8533 75.3806 73.384 75.4994 72.9148 75.6178C75.9277 78.0766 79.0083 80.4606 82.0887 82.8441C82.175 82.2675 82.2574 81.6917 82.3437 81.1151C78.392 82.3362 74.3554 83.0831 70.2305 83.393C70.5708 83.8547 70.9074 84.3178 71.2477 84.7795C72.0878 83.0585 72.9963 81.3766 73.9983 79.7418C73.4216 79.5758 72.8488 79.409 72.2736 79.247C72.5089 80.4962 72.6727 81.7424 72.7716 83.0144C72.8413 83.9093 74.2813 84.2069 74.5744 83.2926C75.1336 81.5408 75.2594 79.876 74.9121 78.0621C74.7573 77.2535 73.5197 76.8758 73.1892 77.7962C72.6551 79.2866 69.4947 85.2673 73.5267 84.3851C77.1605 83.5893 76.7119 79.4319 75.2181 77.0233C74.6796 76.1588 73.3675 76.9713 73.7001 77.8728C73.902 78.4204 74.1054 78.971 74.3073 79.5182C74.8572 79.3016 75.407 79.085 75.9569 78.8685C75.3413 77.7518 74.7578 76.6267 74.2155 75.4721C73.7479 74.4734 72.3441 75.0526 72.6385 76.0932C73.4606 78.9913 75.8171 80.711 78.2415 82.2675C78.5661 81.7248 78.8907 81.182 79.2114 80.641C77.6891 80.0666 76.1668 79.4922 74.6445 78.9178C73.4643 78.4736 72.8268 80.0706 73.878 80.6807C75.2938 81.4998 76.7328 82.1205 78.2938 82.591C78.3887 81.9801 78.4835 81.3691 78.5745 80.7595C77.7627 80.9377 77.0433 80.9699 76.2217 80.8431C76.2907 81.4558 76.3597 82.0685 76.4249 82.683C77.6683 82.1667 78.8286 81.9435 80.156 81.9325C81.1238 81.9268 81.2875 80.4364 80.4344 80.1062C79.5334 79.755 78.6315 79.413 77.7282 79.067C77.4828 79.6313 77.2373 80.196 76.9895 80.7656C78.1723 81.1605 79.3119 81.6253 80.4382 82.157C81.5098 82.6619 82.2278 80.9888 81.1699 80.4742C78.6157 79.2382 76.363 77.636 74.3319 75.6557C73.5823 74.9268 72.3029 76.1592 73.0103 76.9485C74.1114 78.1787 75.3065 79.2219 76.7098 80.0992C77.0282 79.5631 77.3481 79.0313 77.6666 78.4952C76.1284 77.6228 74.1492 75.8863 72.2839 76.2904C71.5286 76.4555 71.1488 77.2051 71.5915 77.8825C72.2504 78.8852 73.136 79.4103 74.3123 79.5868C75.5921 79.7801 75.8996 77.7923 74.6213 77.603C73.9578 77.5643 73.4802 77.2579 73.1847 76.6857C73.0401 77.1928 72.8971 77.7038 72.7525 78.2109C73.7418 77.9005 76.1074 79.7673 76.9163 80.2207C77.8378 80.7361 78.7844 79.185 77.8732 78.6167C76.6073 77.831 75.502 76.9379 74.5047 75.826C74.0649 76.2552 73.6228 76.6896 73.1831 77.1188C75.3325 79.1986 77.7495 80.8594 80.4443 82.15C80.6875 81.5909 80.9329 81.0262 81.1761 80.4672C80.0474 79.9407 78.9017 79.483 77.7305 79.0617C76.6202 78.6603 75.8811 80.3021 76.9919 80.7603C77.8859 81.1279 78.7785 81.491 79.6749 81.8528C79.7659 81.2432 79.8622 80.6362 79.9532 80.0266C78.449 80.0363 77.1048 80.3188 75.7216 80.8946C74.8494 81.2555 74.9785 82.5818 75.9248 82.7345C76.9259 82.8916 77.787 82.8833 78.7735 82.6672C79.5852 82.4885 80.0804 81.1459 79.0542 80.8352C77.4916 80.3607 76.0511 79.7365 74.6368 78.9209C74.3821 79.5067 74.1274 80.0926 73.8704 80.6837C75.3912 81.2542 76.9174 81.8269 78.4382 82.3973C79.3902 82.7552 80.3855 81.3612 79.4081 80.7709C77.2209 79.4477 75.0021 78.044 74.1987 75.4743C73.6718 75.6816 73.1487 75.8876 72.6218 76.0954C73.151 77.2509 73.7017 78.3931 74.2868 79.5221C74.8032 80.5103 76.3478 79.9636 75.9363 78.8724C75.7305 78.3266 75.5195 77.7786 75.3137 77.2328C74.8077 77.5163 74.3017 77.7993 73.7957 78.0823C74.3018 78.8764 74.6415 79.7176 74.4663 80.6741C74.4191 80.9351 73.6374 83.1188 72.9287 82.573C73.0474 82.8745 73.1646 83.1729 73.2834 83.4749C73.3507 81.9079 74.3359 80.0059 74.8287 78.5229C74.2562 78.4354 73.6784 78.3451 73.1059 78.2571C73.3842 79.7277 73.3087 81.1169 72.8336 82.5439C73.4351 82.6381 74.035 82.7283 74.6365 82.8225C74.5559 81.5522 74.4051 80.3052 74.1903 79.0525C74.0611 78.309 72.9569 77.7773 72.4656 78.5577C71.3509 80.321 70.3335 82.1297 69.4118 84.0022C69.0696 84.7021 69.717 85.4402 70.429 85.3892C74.7329 85.0753 78.9459 84.272 83.0708 83.0092C83.815 82.782 83.8925 81.723 83.3257 81.2802C80.2529 78.8931 77.1748 76.5043 74.0413 74.1987C73.5556 73.8386 72.8955 74.0103 72.6334 74.5548C71.2749 77.4027 70.3115 80.4698 69.4869 83.5092C69.2962 84.2245 70.5796 84.6061 70.7986 83.8622Z" fill="#CD3AE5"/>
</svg>
