<svg width="87" height="80" viewBox="0 0 87 80" fill="none" xmlns="http://www.w3.org/2000/svg">
<path d="M86.649 62.8391C86.3189 64.2295 86.0906 65.6516 85.6452 67.0035C84.4296 70.7144 82.0888 73.9548 78.9477 76.2747C75.8066 78.5945 72.0211 79.8788 68.1168 79.9492C64.5651 80.0215 61.011 79.9717 57.457 79.9717C56.3265 79.9717 55.7297 79.5196 55.7523 78.6786C55.7749 77.8873 56.3785 77.4283 57.4389 77.426C60.7668 77.426 64.0948 77.426 67.4228 77.426C75.702 77.4147 82.3082 71.9412 83.8636 63.8067C85.5909 54.7633 78.8106 45.6544 69.6497 44.7275C68.5894 44.6189 67.5132 44.6415 66.4438 44.6347C65.0873 44.6347 64.7414 44.316 64.6351 42.9798C64.1174 35.7451 58.0176 29.4147 50.7784 28.6393C42.1872 27.7078 34.9367 32.9507 33.1438 41.3995C32.8748 42.6475 32.2689 42.964 30.9621 42.5299C23.0899 39.9299 14.9101 44.4426 12.9726 52.4776C12.7742 53.4146 12.648 54.3655 12.595 55.3218C12.491 56.572 12.2627 56.8297 11.0011 57.0807C7.21647 57.8313 4.57127 60.0198 3.21251 63.6078C0.666794 70.3451 5.63614 77.4125 12.9048 77.426C25.6243 77.4456 38.343 77.4456 51.061 77.426C51.3716 77.4136 51.6827 77.4204 51.9925 77.4464C52.7408 77.5413 53.1885 78.0478 53.1749 78.7419C53.1614 79.4359 52.7047 79.8994 51.9315 79.9627C51.7348 79.9785 51.5381 79.974 51.3391 79.974C38.6196 79.974 25.9001 79.974 13.1806 79.974C6.98586 79.974 1.99392 76.2233 0.433933 70.4626C-1.37474 63.7841 2.64277 56.6918 9.28288 54.8809C9.90913 54.7113 10.1149 54.4491 10.1126 53.7912C10.0975 44.906 10.09 36.0209 10.09 27.1358C10.09 25.7793 10.4495 25.2277 11.3176 25.2073C12.1858 25.187 12.6357 25.7974 12.6357 27.1516V46.4366L12.8618 46.6085C12.9287 46.4407 13.0096 46.2789 13.1037 46.1246C14.4853 44.1539 16.3036 42.5291 18.4167 41.3769C18.957 41.0852 18.9796 40.6986 18.9796 40.208C18.9796 30.2241 18.9796 20.2402 18.9796 10.2563C18.9796 8.89984 19.2283 8.59236 20.6662 8.29619L15.8122 3.13694C14.1889 4.86724 12.6063 6.54931 11.0644 8.18315C11.5392 8.46802 12.1067 8.63532 12.3644 9.01062C12.6221 9.38592 12.6244 9.97148 12.6289 10.4643C12.647 13.9053 12.6402 17.3464 12.6289 20.7851C12.6433 21.1225 12.6067 21.4602 12.5204 21.7867C12.326 22.4061 11.8422 22.6752 11.2136 22.6119C10.942 22.6026 10.6828 22.4958 10.4835 22.3111C10.2842 22.1263 10.1582 21.8759 10.1284 21.6058C10.0929 21.3262 10.0801 21.0442 10.09 20.7625C10.09 17.8294 10.09 14.8964 10.09 11.9633V10.9346C9.33036 10.9346 8.64758 11.025 8.00324 10.9029C7.53328 10.8034 7.11091 10.5476 6.80499 10.1772C6.43421 9.7047 6.64447 9.15984 7.05142 8.72802C9.64235 5.97657 12.2242 3.21833 14.8287 0.478188C15.4527 -0.177457 16.1852 -0.154848 16.8228 0.521145C19.4047 3.23416 21.9866 5.963 24.5097 8.7348C24.7991 9.05358 24.9438 9.78609 24.7787 10.1591C24.6137 10.5322 23.9987 10.8125 23.5352 10.9052C22.9203 11.0318 22.2579 10.9369 21.566 10.9369V39.7626L28.2039 39.1183V21.902C27.5256 21.902 26.8474 21.9924 26.203 21.8703C25.7644 21.7889 25.1698 21.4927 25.0342 21.1401C24.9626 20.8995 24.9474 20.6457 24.9898 20.3983C25.0321 20.1509 25.1309 19.9165 25.2784 19.7135C27.8037 16.9417 30.3856 14.2196 32.9652 11.4976C33.6277 10.8012 34.367 10.7922 35.0226 11.4817C37.6022 14.1947 40.1638 16.9439 42.7366 19.6728C43.1458 20.1068 43.3696 20.6517 43.0056 21.1174C42.6768 21.5006 42.2312 21.7651 41.7373 21.8703C41.1224 21.9969 40.4622 21.902 39.7817 21.902V28.0492L46.4444 25.8765V12.9264C45.7345 12.9264 45.0494 13.0168 44.4096 12.8948C43.9733 12.8134 43.3764 12.524 43.2385 12.1735C43.1663 11.9331 43.1502 11.6792 43.1913 11.4316C43.2325 11.1839 43.3298 10.9489 43.4759 10.7447C46.0194 7.95028 48.6216 5.21014 51.2238 2.46999C51.8342 1.82791 52.6029 1.84148 53.2269 2.49938C55.8088 5.2124 58.3907 7.9435 60.9138 10.7153C61.0668 10.9147 61.1712 11.1471 61.2187 11.394C61.2662 11.6408 61.2555 11.8954 61.1874 12.1374C61.0246 12.5081 60.4141 12.7998 59.9507 12.897C59.3357 13.0236 58.671 12.9287 57.9747 12.9287C57.9521 13.2452 57.9204 13.4916 57.9182 13.7358C57.9182 18.3909 57.9182 23.0437 57.9363 27.6965C57.9429 27.8786 57.9878 28.0573 58.068 28.2209C58.1482 28.3845 58.2621 28.5293 58.402 28.6461C60.8068 30.1404 62.8457 32.1554 64.3684 34.5423C64.4113 34.6102 64.4611 34.6735 64.608 34.8837V25.4673C63.9162 25.4673 63.2312 25.56 62.5846 25.4357C62.1505 25.3543 61.5853 25.0513 61.4247 24.6941C61.3522 24.4669 61.3339 24.2259 61.3712 23.9904C61.4085 23.7548 61.5004 23.5313 61.6395 23.3376C64.2056 20.5251 66.8236 17.7601 69.4462 14.9996C70.034 14.3824 70.8027 14.3869 71.386 15.0132C74.0063 17.7737 76.6221 20.5409 79.1859 23.3557C79.4527 23.6496 79.5296 24.3391 79.3781 24.7122C79.2447 25.0513 78.6999 25.352 78.2861 25.4266C77.635 25.5442 76.9455 25.4583 76.1835 25.4583C76.1677 25.8132 76.1428 26.1094 76.1428 26.4078C76.1428 29.1706 76.1428 31.9356 76.1428 34.6983C76.1428 35.3359 76.0027 35.8875 75.39 36.186C74.5015 36.6178 73.6084 35.9599 73.6017 34.8679C73.5881 32.0758 73.6017 29.2836 73.6017 26.4915C73.6017 25.9263 73.6017 25.361 73.6017 24.7981C73.6017 23.3941 73.8142 23.1296 75.2611 22.8289L70.4161 17.6764L65.5779 22.8063C67.0904 23.2155 67.2148 23.3806 67.2148 24.9405V41.8494L73.6017 42.7876C73.6017 41.9805 73.6017 41.1169 73.6017 40.251C73.613 39.2992 74.0538 38.7792 74.8474 38.7724C75.6409 38.7656 76.1202 39.3014 76.1361 40.2284C76.1542 41.3 76.1067 42.3739 76.1632 43.441C76.1789 43.6064 76.2292 43.7665 76.3111 43.9111C76.3929 44.0556 76.5043 44.1813 76.638 44.2798C82.3534 47.5603 85.6949 52.4188 86.5201 58.9753C86.5488 59.0807 86.5914 59.1818 86.6467 59.276L86.649 62.8391ZM55.377 26.9685V26.1116C55.377 21.5719 55.377 17.0321 55.3883 12.4946C55.3883 11.9746 55.4086 11.3642 55.6732 10.964C55.9377 10.5638 56.5029 10.4508 56.9709 10.1863L52.2118 5.12648L47.3646 10.279C48.7979 10.5864 49.0421 10.8894 49.0421 12.2979C49.0421 16.5257 49.0421 20.755 49.0421 24.9858V25.7612L55.377 26.9685ZM30.8174 39.4235C30.9079 39.3625 30.9644 39.3421 30.9847 39.3037C31.0382 39.2048 31.0821 39.1011 31.1159 38.9939C32.1444 35.6303 34.1087 32.6286 36.7793 30.3394C37.0363 30.0652 37.1815 29.7047 37.1862 29.3288C37.2201 26.652 37.1862 23.9729 37.2179 21.2938C37.2179 20.8077 37.2586 20.2267 37.5186 19.8649C37.7786 19.5032 38.3302 19.4128 38.7982 19.1686L34.0075 14.0907C32.3503 15.8542 30.7654 17.5385 29.1218 19.2907C30.5122 19.4716 30.8174 19.8129 30.8174 21.0632C30.8174 25.5442 30.8174 30.0267 30.8174 34.5107C30.8197 36.1453 30.8174 37.764 30.8174 39.4235Z" fill="#063D5B"/>
<path d="M58.8392 51.7881C61.0421 51.8211 63.1438 52.7187 64.691 54.2872C66.2382 55.8556 67.107 57.9694 67.11 60.1726C67.1129 62.3758 66.2499 64.4918 64.7069 66.0645C63.1639 67.6371 61.0646 68.5404 58.8618 68.5794C57.7477 68.5991 56.6409 68.3969 55.6058 67.9845C54.5706 67.5722 53.6279 66.9579 52.8326 66.1776C52.0372 65.3972 51.4051 64.4664 50.9732 63.4393C50.5412 62.4122 50.3179 61.3094 50.3164 60.1952C50.3149 59.081 50.5352 57.9776 50.9644 56.9493C51.3936 55.9211 52.0232 54.9885 52.8165 54.2061C53.6097 53.4236 54.5508 52.8068 55.5848 52.3917C56.6188 51.9765 57.7251 51.7713 58.8392 51.7881ZM64.6925 60.1735C64.6624 58.6414 64.0326 57.1821 62.9384 56.1092C61.8442 55.0362 60.3728 54.4352 58.8403 54.4352C57.3079 54.4352 55.8365 55.0362 54.7423 56.1092C53.648 57.1821 53.0182 58.6414 52.9881 60.1735C52.9728 60.9517 53.1129 61.7252 53.4001 62.4486C53.6874 63.172 54.116 63.8309 54.6609 64.3866C55.2059 64.9424 55.8562 65.3839 56.5738 65.6853C57.2914 65.9866 58.062 66.1419 58.8403 66.1419C59.6187 66.1419 60.3892 65.9866 61.1068 65.6853C61.8245 65.3839 62.4748 64.9424 63.0197 64.3866C63.5647 63.8309 63.9933 63.172 64.2805 62.4486C64.5678 61.7252 64.7078 60.9517 64.6925 60.1735Z" fill="#063D5B"/>
<path d="M32.7149 51.7858C34.3834 51.7971 35.8575 52.3804 37.2027 53.3209C37.9556 53.8476 38.1387 54.5802 37.7159 55.2064C37.2932 55.8327 36.5561 55.9367 35.7874 55.4325C34.657 54.6729 33.4339 54.1506 32.0548 54.3993C31.452 54.5031 30.8892 54.7697 30.427 55.1702C29.5746 55.9661 29.855 57.1756 30.9289 57.6346C32.1452 58.1546 33.3887 58.6135 34.6005 59.1403C35.2275 59.3922 35.8249 59.7121 36.382 60.0944C37.8765 61.1886 38.7424 62.6243 38.3083 64.5392C37.8131 66.7322 36.2893 67.9779 34.18 68.4098C31.5122 68.9569 29.1677 68.152 27.194 66.2913C26.4637 65.6131 26.4162 64.8738 26.9973 64.3018C27.5783 63.7298 28.2385 63.8112 28.9416 64.4601C30.3117 65.7216 31.901 66.3072 33.7482 65.8934C34.2655 65.7656 34.7442 65.5143 35.1431 65.1609C36.1582 64.2724 36.1288 63.0809 35.0481 62.2806C34.4716 61.851 33.7708 61.582 33.1038 61.2903C32.0729 60.8382 31.0193 60.4403 29.9816 60.0017C26.9837 58.7311 26.4999 54.9464 29.0772 52.9162C30.0223 52.1588 31.2974 51.7677 32.7149 51.7858Z" fill="#063D5B"/>
<path d="M43.2854 54.3768V58.9165C44.5899 58.9165 45.8492 58.9165 47.1107 58.9165C48.1824 58.9165 48.7521 59.3687 48.743 60.1849C48.734 61.001 48.1507 61.4442 47.0836 61.4509C45.8469 61.4509 44.6102 61.4509 43.308 61.4509V65.9139C43.6448 65.9274 43.9478 65.9523 44.2485 65.9523C45.4626 65.9523 46.6744 65.9342 47.8862 65.9749C48.682 66.002 49.1997 66.5559 49.193 67.2478C49.193 67.4112 49.1605 67.573 49.0975 67.7238C49.0345 67.8746 48.9421 68.0114 48.8258 68.1263C48.7095 68.2411 48.5716 68.3317 48.42 68.3928C48.2684 68.4539 48.1061 68.4843 47.9427 68.4822C45.9419 68.5206 43.9388 68.5161 41.9379 68.4822C41.1783 68.4822 40.7691 67.9893 40.708 67.2342C40.6877 66.981 40.6944 66.7255 40.6944 66.4723C40.6944 62.2716 40.6944 58.0695 40.6944 53.8658C40.6944 52.1317 40.9929 51.8311 42.6908 51.8311C44.3254 51.8311 45.9622 51.8311 47.5968 51.8311C48.5916 51.8311 49.1794 52.299 49.1952 53.0723C49.211 53.8455 48.6074 54.3677 47.5674 54.3722C46.1612 54.3813 44.7572 54.3768 43.2854 54.3768Z" fill="#063D5B"/>
</svg>
