<svg width="80" height="80" viewBox="0 0 80 80" fill="none" xmlns="http://www.w3.org/2000/svg">
<path d="M79.9691 32.1899C79.8712 33.0118 79.789 33.8356 79.6736 34.6555C78.2001 45.1226 72.7757 52.8873 63.5747 58.0064C60.2481 59.8576 56.6162 60.8712 52.8454 61.3722C52.1116 61.47 51.501 61.0239 51.411 60.3624C51.3288 59.748 51.7633 59.2373 52.4893 59.0572C54.8061 58.4839 57.1974 58.1101 59.4204 57.2843C65.5061 55.0183 70.2045 50.9873 73.5585 45.4299C76.4231 40.7265 77.8223 35.2768 77.5778 29.7752C77.2823 21.9478 74.1807 15.3396 68.5001 9.94659C68.3864 9.85911 68.2675 9.77872 68.1439 9.7059C68.1439 11.0463 68.1204 12.283 68.1654 13.5159C68.1654 13.7565 68.4277 14.009 68.6077 14.2223C71.4108 17.4673 73.3314 21.3793 74.1847 25.5817C75.3862 31.4737 74.6895 37.1564 71.9186 42.4868C68.7623 48.553 63.9485 52.8913 57.4146 55.0301C49.1372 57.7403 41.3177 56.5799 34.1987 51.5195C28.8155 47.6939 25.3793 42.4476 24.1387 35.9803C22.3266 26.5405 24.984 18.4001 32.0658 11.8584C36.7837 7.5025 42.4683 5.35586 48.8946 5.22671C51.2377 5.1923 53.5735 5.4968 55.8296 6.13076C56.0996 6.20512 56.3716 6.27165 56.7473 6.3695C56.7473 5.4263 56.7786 4.57312 56.7219 3.72581C56.7101 3.55361 56.3794 3.31684 56.1583 3.25813C52.2984 2.2182 48.255 2.05373 44.3234 2.77675C35.2456 4.48702 28.4339 9.40259 24.0252 17.5039C20.9431 23.1611 19.9628 29.2703 21.1741 35.5772C23.4185 47.2614 30.426 54.7718 41.7639 58.2412C43.2178 58.6874 44.7735 58.8029 46.2841 59.067C46.5914 59.1199 46.9045 59.1394 47.2097 59.204C47.9338 59.3527 48.3408 59.8869 48.241 60.5229C48.1412 61.1589 47.5796 61.5639 46.8594 61.5013C44.1091 61.2794 41.3992 60.7018 38.7973 59.7832C35.0876 58.4594 31.6674 56.4337 28.7235 53.8168C28.5709 53.6799 28.4045 53.5605 28.2108 53.4059L25.9839 55.8578C26.3303 56.1787 26.7882 56.5662 27.2011 56.9947C28.5454 58.388 28.5513 60.112 27.2011 61.5091C25.9292 62.8065 24.6239 64.0765 23.3461 65.37L10.4213 78.2851C8.13372 80.5707 5.68376 80.5726 3.40014 78.2851C2.62719 77.5023 1.82293 76.7627 1.11847 75.9369C-0.396121 74.1542 -0.358942 71.7962 1.14782 70.0155C1.3435 69.7768 1.56854 69.5537 1.78966 69.3345L18.0627 53.0458C19.863 51.2456 21.4617 51.2358 23.2405 53.0341C23.555 53.3931 23.8484 53.7701 24.1191 54.1632C24.9781 53.1848 25.665 52.4177 26.3694 51.6193C25.4928 50.4452 24.4576 49.187 23.5457 47.8387C20.7695 43.7538 19.0582 39.0398 18.5675 34.1252C17.8024 26.8164 19.3738 20.0145 23.4361 13.9092C28.3439 6.52996 35.228 2.0175 43.9946 0.461816C44.9907 0.285701 45.9945 0.156546 46.9945 0.00587026H51.2114C53.1115 0.336575 55.0097 0.671194 56.9117 0.984287C57.0576 0.997192 57.2035 0.959165 57.3246 0.876664C57.7434 0.596836 58.1465 0.289611 58.5554 0H66.3671C67.7369 0.632057 68.2652 1.71028 68.14 3.19551C68.0715 3.99586 68.1674 4.80794 68.1146 5.61024C68.0735 6.26774 68.2868 6.69042 68.8073 7.12288C74.2473 11.649 77.7481 17.3767 79.2353 24.3C79.562 25.8165 79.7245 27.3683 79.9612 28.9044L79.9691 32.1899ZM59.1444 2.39321V51.7602C59.3988 51.6526 59.5847 51.5861 59.7609 51.496C61.777 50.4625 63.6341 49.1444 65.2752 47.5824C65.4498 47.4338 65.588 47.2472 65.6792 47.0368C65.7705 46.8265 65.8123 46.5981 65.8016 46.3691C65.782 42.3087 65.7899 38.2463 65.8016 34.1859C65.7955 33.8745 65.8191 33.5633 65.872 33.2564C65.887 33.1183 65.9295 32.9845 65.997 32.8631C66.0645 32.7417 66.1557 32.635 66.2652 32.5494C66.3746 32.4639 66.5002 32.4011 66.6343 32.3649C66.7684 32.3287 66.9085 32.3198 67.0461 32.3386C67.6802 32.368 68.0441 32.73 68.1224 33.3601C68.1482 33.6202 68.1574 33.8816 68.1498 34.1428C68.1498 37.1616 68.1498 40.1816 68.1498 43.203C68.1498 43.4495 68.1733 43.6941 68.1909 44.017C73.8657 36.6515 73.7092 24.7442 68.1498 17.6291V18.4725C68.1498 21.4404 68.1498 24.4082 68.1498 27.3761C68.1552 27.6374 68.1447 27.8988 68.1185 28.1588C68.103 28.4231 67.9873 28.6715 67.7949 28.8533C67.6026 29.0352 67.348 29.1367 67.0833 29.1373C66.4708 29.1823 66.0208 28.8907 65.8896 28.2567C65.8295 27.9249 65.8027 27.588 65.8094 27.2509C65.8094 19.2852 65.8094 11.319 65.8094 3.35206V2.40104L59.1444 2.39321ZM56.3873 8.90359C47.8261 5.77266 35.8405 8.17956 29.383 18.6878C27.1072 22.3877 25.8983 26.6446 25.89 30.9884C25.8391 35.6222 27.8645 41.2344 29.6315 43.109V42.2226C29.6315 37.9554 29.6315 33.6875 29.6315 29.419C29.6315 27.6051 30.5492 26.6912 32.371 26.6795C34.1929 26.6677 35.9618 26.6795 37.7582 26.6795H38.6388C38.6564 26.3253 38.6779 26.0709 38.6779 25.8165C38.6779 24.1519 38.6779 22.4866 38.6779 20.8207C38.6779 18.633 39.5096 17.7974 41.6797 17.7954H47.6715C47.6872 17.455 47.7107 17.1771 47.7126 16.8992C47.7126 15.2066 47.7126 13.5159 47.7126 11.8251C47.7126 9.80178 48.603 8.91142 50.6029 8.90946C52.5362 8.89381 54.4598 8.90359 56.3873 8.90359ZM50.1254 11.2792V54.2415C52.1292 53.8344 54.0254 53.4353 55.9313 53.0674C56.5927 52.9421 56.7688 52.6114 56.7688 51.9481C56.7467 38.6768 56.7408 25.4043 56.7512 12.1304C56.7512 11.8545 56.7258 11.5786 56.7101 11.2753L50.1254 11.2792ZM41.0203 20.171V21.2708C41.0203 31.3159 41.0203 41.3609 41.0203 51.406C41.0203 52.8795 40.7854 52.5214 42.1591 52.9715C43.9276 53.569 45.7729 53.9084 47.6383 53.9793V20.171H41.0203ZM31.9777 29.0609V30.0804C31.9777 34.4272 31.9777 38.774 31.9777 43.1208C31.9777 44.2381 31.6509 45.5355 32.1049 46.4278C32.6489 47.4943 33.8132 48.2888 34.8132 49.0676C35.9873 49.9775 37.2729 50.7427 38.6329 51.6545V29.0609H31.9777ZM11.9339 62.511C8.94776 65.4972 5.9538 68.4657 2.99116 71.4655C2.06166 72.4068 2.09884 73.6298 3.02051 74.6082C3.73475 75.3655 4.48227 76.0915 5.22391 76.8214C6.36083 77.9446 7.46056 77.9348 8.60727 76.7901C11.4095 73.9892 14.2084 71.1863 17.004 68.3815C17.1586 68.227 17.2937 68.0508 17.3837 67.9471L11.9339 62.511ZM22.5849 62.877C23.5633 61.8829 24.5418 60.879 25.5202 59.8811C25.9115 59.476 25.9624 59.0651 25.5534 58.6561C24.1184 57.2211 22.6834 55.7861 21.2484 54.351C20.8668 53.9734 20.4657 53.9597 20.0861 54.351C19.0607 55.3764 18.0412 56.4077 17.0588 57.3959L22.5849 62.877ZM13.7244 60.7773L19.0861 66.1292L20.5361 64.6479L15.2135 59.2881L13.7244 60.7773Z" fill="#683598"/>
</svg>
