<svg width="92" height="80" viewBox="0 0 92 80" fill="none" xmlns="http://www.w3.org/2000/svg">
<path d="M0.00237769 4.96601C0.178006 4.43811 0.382602 3.92029 0.615227 3.4149C1.83854 1.09654 3.79346 0.00387036 6.40162 0.00624572C14.9054 0.00624572 23.4092 0.00624572 31.9131 0.00624572C35.1436 0.00624572 38.3741 -0.0198845 41.6022 0.034749C42.1482 0.0491734 42.6691 0.266872 43.063 0.64522C43.7139 1.35783 43.1794 2.50751 42.2008 2.65003C41.8764 2.68173 41.5501 2.68967 41.2245 2.67379H6.46575C4.49657 2.67379 3.18299 3.57167 2.77681 5.21542C2.69511 5.62102 2.66084 6.03473 2.67467 6.44824C2.67467 24.1716 2.67467 41.8943 2.67467 59.6161C2.67467 62.0247 3.93361 63.2932 6.33986 63.2932H58.2511C58.5196 63.2932 58.7856 63.2932 59.0516 63.2932C59.959 63.324 60.5054 63.83 60.5006 64.6234C60.4959 65.4167 59.9448 65.9393 59.0398 65.9512C57.377 65.975 55.7142 65.9512 54.0515 65.9512H52.8923C53.5147 67.8657 54.08 69.6639 54.7095 71.4407C54.7736 71.6212 55.2297 71.7495 55.5076 71.7518C57.5504 71.778 59.5956 71.7518 61.6408 71.7709C63.0185 71.7709 63.4342 72.2008 63.4413 73.588C63.4413 75.1581 63.4413 76.7282 63.4413 78.3007C63.4413 79.4884 62.9425 79.9801 61.7548 79.9801C50.939 79.9801 40.1231 79.9801 29.3073 79.9801C28.1077 79.9801 27.6232 79.505 27.6113 78.3174C27.5954 76.6879 27.5954 75.0583 27.6113 73.4288C27.6232 72.2412 28.0864 71.7875 29.3049 71.7661C31.381 71.7518 33.4547 71.7423 35.5284 71.7661C36.1056 71.7661 36.3479 71.5856 36.5141 71.0297C37.0106 69.367 37.5759 67.7208 38.1579 65.9369H37.0035C27.0768 65.9369 17.1502 65.8562 7.22587 65.975C3.33739 66.0225 0.800499 64.3526 0 60.9629L0.00237769 4.96601ZM60.731 74.5168H30.3477V77.2722H60.731V74.5168ZM40.9608 65.9654C40.3337 67.9061 39.7209 69.7969 39.1033 71.7091H51.9469C51.3531 69.8848 50.802 68.146 50.2034 66.4192C50.1445 66.3036 50.0587 66.2038 49.9533 66.1282C49.848 66.0526 49.726 66.0033 49.5977 65.9845C46.7662 65.9583 43.9253 65.9678 40.968 65.9678L40.9608 65.9654Z" fill="#0B4396"/>
<path d="M8.24841 52.117H82.8658V51.1384C82.8658 45.4153 82.8658 39.6947 82.8658 33.9764C82.8483 33.6802 82.8547 33.3831 82.8848 33.088C82.9965 32.3872 83.424 31.9692 84.1414 31.9383C84.8588 31.9074 85.3148 32.3065 85.4882 32.9858C85.5396 33.2782 85.5539 33.5759 85.531 33.8718C85.531 40.2141 85.531 46.5563 85.531 52.8985C85.531 54.4449 85.1462 54.8273 83.5832 54.8273H7.48592C5.88017 54.8273 5.52148 54.4544 5.52148 52.8249C5.52148 37.7112 5.52148 22.5952 5.52148 7.47677C5.52148 5.84964 5.88017 5.48621 7.49067 5.48621H83.5927C85.1509 5.48621 85.5334 5.86627 85.5334 7.41738C85.5334 13.9101 85.5334 20.4027 85.5334 26.8954C85.5523 27.1613 85.5388 27.4285 85.493 27.6911C85.3196 28.3752 84.854 28.7838 84.1509 28.7553C83.8336 28.7588 83.5268 28.6418 83.2923 28.428C83.0578 28.2142 82.913 27.9195 82.8872 27.6032C82.8595 27.308 82.8531 27.0111 82.8682 26.7149C82.8682 20.8762 82.8682 15.0376 82.8682 9.19891V8.20363H8.24841V52.117Z" fill="#0B4396"/>
<path d="M34.409 14.5292C34.671 14.5957 34.9281 14.6798 35.1787 14.781C35.4708 14.9212 35.744 15.0993 36.0243 15.2561C38.3094 16.6077 38.3142 16.6148 40.6396 15.4438C40.8526 15.3092 41.0089 15.1013 41.0791 14.8594C41.3356 14.0114 41.566 13.1515 41.7632 12.2869C41.9603 11.4223 42.4758 11.0256 43.3333 11.0256C44.8155 11.0256 46.2978 11.0256 47.78 11.0256C48.5591 11.0256 49.0651 11.4009 49.2622 12.1681C49.3344 12.3627 49.3869 12.564 49.419 12.7691C49.495 14.7905 50.6304 15.8856 52.507 16.3131C52.7731 16.3791 53.0536 16.3558 53.3051 16.2466C54.0913 15.8333 54.8538 15.3749 55.6068 14.9045C56.3598 14.4342 56.9893 14.5031 57.6021 15.1278C58.6426 16.1849 59.6948 17.2277 60.7447 18.2728C61.002 18.5015 61.1678 18.8157 61.2114 19.1571C61.2551 19.4985 61.1737 19.8442 60.9823 20.1304C60.8659 20.337 60.7447 20.5389 60.6236 20.7432C59.3005 22.9927 59.2887 22.9974 60.3647 25.3585C60.5202 25.6228 60.7695 25.8187 61.0631 25.9072C61.9372 26.1804 62.8327 26.3823 63.7211 26.6199C64.0319 26.6763 64.3113 26.8448 64.5061 27.0935C64.701 27.3422 64.7977 27.6537 64.7781 27.9691C64.7781 29.5416 64.7781 31.1117 64.7781 32.6818C64.7985 32.9971 64.7059 33.3094 64.517 33.5627C64.3281 33.816 64.0553 33.9938 63.7472 34.0643C63.4907 34.1403 63.2341 34.2092 62.9752 34.2757C60.4645 34.9313 60.455 34.9289 59.5404 37.3636C59.4619 37.6303 59.4891 37.917 59.6164 38.1641C60.0155 38.9243 60.4668 39.6559 60.9158 40.3875C61.3647 41.1191 61.3528 41.827 60.6972 42.4707C59.6592 43.4873 58.6378 44.5183 57.6093 45.5587C56.9988 46.1763 56.3408 46.2546 55.6116 45.7796C55.4382 45.6656 55.2553 45.5658 55.0771 45.4589C52.811 44.1216 52.8086 44.1121 50.4547 45.2214C50.2163 45.3682 50.041 45.5985 49.9629 45.8675C49.7017 46.7155 49.4879 47.5777 49.2765 48.44C49.077 49.2405 48.5971 49.6467 47.7586 49.6395C46.2455 49.6277 44.7348 49.6395 43.224 49.6395C42.8944 49.6648 42.5669 49.5678 42.3041 49.3672C42.0413 49.1666 41.8614 48.8763 41.7988 48.5516C41.5613 47.668 41.3665 46.7654 41.0862 45.896C40.9507 45.5997 40.7288 45.3513 40.4496 45.1834C38.8249 44.0717 37.3616 44.3734 35.8224 45.5159C34.5421 46.4661 34.2119 46.3259 33.0812 45.1976C32.181 44.2973 31.2902 43.3828 30.3757 42.4968C29.7177 41.8578 29.6631 41.1785 30.1381 40.4207C30.2474 40.245 30.3495 40.0644 30.4541 39.8863C31.7985 37.6083 31.8056 37.6059 30.6536 35.2662C30.5025 35.0331 30.2708 34.864 30.0027 34.7911C29.1809 34.5536 28.34 34.3517 27.511 34.1498C26.682 33.9479 26.2449 33.4538 26.252 32.5725C26.2687 31.0903 26.252 29.6081 26.252 28.1258C26.252 27.2921 26.6511 26.7933 27.4611 26.6127C27.602 26.5687 27.7456 26.5338 27.891 26.5082C29.7747 26.3562 31.0907 25.5129 31.4398 23.5461C31.5207 23.1738 31.4918 22.786 31.3567 22.4297C31.0004 21.6862 30.5348 20.9926 30.1096 20.28C29.6844 19.5674 29.7129 18.8928 30.3472 18.2752C31.3852 17.2633 32.39 16.211 33.4351 15.2062C33.7368 14.9492 34.063 14.7225 34.409 14.5292ZM40.7632 42.4089C40.7632 40.663 40.7822 39.0692 40.7418 37.4777C40.7418 37.2544 40.4805 36.9741 40.2667 36.8292C37.4163 34.9123 36.3568 32.1402 36.5801 28.8527C36.8177 25.4536 38.6443 23.0663 41.6848 21.6055C43.0839 20.9332 43.9533 21.4867 43.9699 23.0307C43.9865 24.5747 43.9699 26.0545 43.9699 27.5653C43.9699 28.1377 45.0816 29.3658 45.559 29.3325C46.0365 29.2993 47.0769 28.114 47.0769 27.589C47.0769 26.0474 47.0769 24.501 47.0769 22.9642C47.0769 21.5081 47.894 20.9427 49.2147 21.5389C52.2101 22.9095 54.0937 25.1899 54.4405 28.513C54.7897 31.9336 53.7517 34.8244 50.7967 36.8434C50.5581 36.9897 50.3873 37.2246 50.3216 37.4967C50.2813 39.0858 50.3003 40.6749 50.3003 42.4279C50.9416 42.112 51.4571 41.9006 51.925 41.6156C52.2193 41.4131 52.5693 41.3073 52.9264 41.3128C53.2835 41.3184 53.6301 41.435 53.9179 41.6464C54.6876 42.1381 55.4881 42.5776 56.3883 43.1073C56.88 42.5705 57.3979 42.0764 57.8135 41.511C57.8971 41.3829 57.9508 41.2375 57.9705 41.0858C57.9903 40.934 57.9756 40.7798 57.9276 40.6345C57.58 39.949 57.1955 39.2829 56.7755 38.6392C56.6076 38.3771 56.5137 38.0745 56.5037 37.7634C56.4936 37.4523 56.5679 37.1443 56.7185 36.8719C57.1936 35.8292 57.6686 34.7697 58.0392 33.6842C58.1236 33.3706 58.2933 33.0865 58.5293 32.8634C58.7654 32.6403 59.0586 32.487 59.3765 32.4205C60.1248 32.2423 60.8778 32.069 61.607 31.829C61.7275 31.779 61.8352 31.7024 61.922 31.6049C62.0088 31.5074 62.0724 31.3916 62.1082 31.2661C62.4004 29.1021 62.2982 28.9691 60.2245 28.4608C59.9656 28.3966 59.7115 28.3182 59.4502 28.2731C58.6544 28.1377 58.2459 27.6484 58.0036 26.8954C57.745 25.9866 57.3932 25.107 56.9537 24.2706C56.4168 23.3323 56.424 22.5627 56.9964 21.6387C58.3646 19.4344 58.329 19.413 56.3598 17.7217C56.3212 17.6979 56.2807 17.6773 56.2387 17.66C55.4453 18.1232 54.6187 18.5792 53.8182 19.0852C53.1958 19.4724 52.6305 19.4249 51.982 19.1113C50.9464 18.6149 49.8299 18.2823 48.8109 17.7574C48.3112 17.4968 47.9107 17.0796 47.6707 16.5697C47.3049 15.6789 47.141 14.705 46.8869 13.7549H44.1599C43.9224 14.6623 43.6492 15.5388 43.4473 16.4319C43.2763 17.2229 42.8084 17.6196 42.0577 17.8571C41.025 18.2104 40.0164 18.6309 39.0386 19.1161C38.383 19.4344 37.8201 19.4581 37.2025 19.0709C36.4044 18.5745 35.5801 18.1208 34.6442 17.5697C34.1525 18.1089 33.6394 18.6077 33.219 19.1731C33.1362 19.3016 33.0834 19.4472 33.0645 19.5989C33.0455 19.7506 33.061 19.9047 33.1097 20.0496C33.4589 20.7354 33.8443 21.4023 34.2641 22.0473C34.4309 22.3095 34.5237 22.6119 34.5329 22.9225C34.5421 23.2332 34.4673 23.5405 34.3164 23.8122C33.8413 24.855 33.3781 25.9168 32.9957 26.9999C32.7582 27.6888 32.3567 28.1021 31.656 28.2636C30.9553 28.4251 30.2142 28.5985 29.5182 28.8242C29.3907 28.8645 29.2733 28.9313 29.1734 29.0201C29.0735 29.1089 28.9935 29.2178 28.9386 29.3397C28.5443 31.2708 28.8388 31.715 30.7391 32.1901C31.055 32.2685 31.3662 32.3587 31.6893 32.4276C32.4019 32.5844 32.7772 33.0191 33.0171 33.7056C33.3909 34.7622 33.8199 35.7985 34.3022 36.8102C34.6062 37.461 34.6466 38.0382 34.2641 38.6582C33.7701 39.4587 33.314 40.2806 32.8389 41.093L34.7939 43.0479C35.4922 42.637 36.2072 42.2735 36.8557 41.8175C37.7084 41.2117 38.5184 41.15 39.3902 41.7533C39.8316 42.0044 40.2904 42.2235 40.7632 42.4089ZM41.3071 25.0379C38.0956 27.7078 38.6942 33.1307 42.2573 34.8434C43.1362 35.2638 43.4735 35.822 43.4449 36.7746C43.3879 38.9955 43.3262 41.2189 43.4236 43.4256C43.4758 44.6133 43.8559 45.7653 44.0768 46.8817H47.1244C47.2978 45.219 47.5472 43.5966 47.6208 41.96C47.704 40.1286 47.6375 38.29 47.6208 36.4539C47.6208 35.7555 47.8726 35.2662 48.5282 34.9811C50.9202 33.9312 51.8181 31.9407 51.8537 29.4846C51.8704 27.7695 51.2385 26.2897 49.7587 24.9714C49.7587 25.7552 49.6874 26.3443 49.7705 26.912C50.0413 28.7529 49.4641 30.1378 47.7871 31.0404C47.363 31.3068 46.9653 31.613 46.5994 31.9549C45.9035 32.5274 45.2217 32.544 44.5139 31.9716C43.73 31.3397 42.9414 30.7126 42.1266 30.1211C41.8589 29.9383 41.6436 29.6887 41.5019 29.397C41.3603 29.1054 41.2972 28.7819 41.319 28.4584C41.3237 27.3871 41.3071 26.2992 41.3071 25.0379Z" fill="#0B4396"/>
<path d="M91.0554 33.2115C91.0554 41.983 91.0554 50.7552 91.0554 59.5282C91.0693 60.0317 91.051 60.5355 91.0007 61.0366C90.5874 64.1649 88.5921 65.9275 85.2999 65.9512C79.599 65.9892 73.9219 65.9655 68.2328 65.9678C67.2827 65.9678 66.3326 65.9678 65.3824 65.9678C64.2921 65.9678 63.6603 65.4381 63.684 64.5901C63.7054 63.7778 64.3159 63.3027 65.3658 63.3027H84.2119C84.478 63.3027 84.744 63.3027 85.0124 63.3027C87.4614 63.2623 88.3855 62.3525 88.3878 59.8798C88.3878 49.8351 88.3878 39.7889 88.3878 29.7411V6.61928C88.3878 3.93037 87.1218 2.67617 84.402 2.67617H48.3985C47.1087 2.67617 46.4816 2.24148 46.4864 1.3531C46.4911 0.464708 47.1515 0.00863647 48.408 0.00863647C60.467 0.00863647 72.5275 0.00863647 84.5896 0.00863647C88.5541 0.00863647 91.053 2.54315 91.053 6.53614C91.0562 15.4295 91.0569 24.3213 91.0554 33.2115Z" fill="#0B4396"/>
<path d="M39.9835 57.9818C40.3351 57.9771 40.6741 58.1122 40.926 58.3574C41.1779 58.6027 41.3221 58.9379 41.3268 59.2895C41.3315 59.641 41.1964 59.98 40.9512 60.2319C40.706 60.4838 40.3707 60.628 40.0192 60.6327C39.6676 60.6374 39.3286 60.5023 39.0767 60.2571C38.8248 60.0119 38.6806 59.6766 38.6759 59.3251C38.6712 58.9735 38.8063 58.6345 39.0515 58.3826C39.2967 58.1307 39.632 57.9865 39.9835 57.9818Z" fill="#0B4396"/>
<path d="M45.5279 60.6327C45.2633 60.6349 45.004 60.5579 44.7836 60.4115C44.5631 60.2651 44.3915 60.056 44.2909 59.8112C44.1903 59.5665 44.1653 59.2972 44.219 59.0381C44.2728 58.7789 44.4029 58.5418 44.5926 58.3573C44.7823 58.1728 45.0229 58.0492 45.2834 58.0026C45.5439 57.956 45.8124 57.9884 46.0543 58.0957C46.2962 58.203 46.5004 58.3803 46.6407 58.6047C46.781 58.8291 46.8509 59.0903 46.8415 59.3548C46.8322 59.697 46.6897 60.022 46.4444 60.2607C46.199 60.4994 45.8702 60.6329 45.5279 60.6327Z" fill="#0B4396"/>
<path d="M51.0755 60.6328C50.724 60.6384 50.3846 60.5042 50.132 60.2597C49.8794 60.0151 49.7344 59.6802 49.7287 59.3287C49.723 58.9772 49.8572 58.6378 50.1018 58.3852C50.3464 58.1326 50.6812 57.9875 51.0328 57.9819C51.3843 57.9762 51.7237 58.1104 51.9763 58.355C52.2288 58.5995 52.3739 58.9344 52.3796 59.2859C52.3853 59.6375 52.2511 59.9769 52.0065 60.2294C51.7619 60.482 51.427 60.6271 51.0755 60.6328Z" fill="#0B4396"/>
</svg>
