<svg width="82" height="81" viewBox="0 0 82 81" fill="none" xmlns="http://www.w3.org/2000/svg">
<path d="M50.025 62.4266C50.3216 62.5967 50.604 62.7905 50.8694 63.0061C53.8982 66.0219 56.9205 69.0421 59.9364 72.0666C60.8799 73.0123 60.8885 73.5875 59.9558 74.5245C58.0615 76.4288 56.1623 78.3288 54.2579 80.2245C53.2282 81.2521 52.7091 81.2542 51.6923 80.2396L42.6857 71.2351C42.4702 71.0197 42.2548 70.8366 41.8908 70.4854C41.5633 70.8883 41.2876 71.2889 40.9515 71.6293C40.0252 72.5707 39.4565 72.5578 38.5022 71.6078C37.6061 70.7181 36.6949 69.8435 35.8332 68.9215C35.4627 68.5251 35.1697 68.4907 34.6592 68.6802C25.3186 72.0731 16.6588 70.7676 9.26993 64.1177C1.75182 57.3535 -0.706102 48.6872 2.16112 38.9955C5.00464 29.4073 11.702 23.55 21.5725 21.8267C34.9629 19.4958 47.4529 28.5047 49.7449 41.8606C50.5108 46.2518 50.031 50.7697 48.3598 54.902C48.1444 55.4514 48.1659 55.8025 48.6204 56.2226C49.5704 57.095 50.4601 58.0299 51.3649 58.9498C52.1619 59.7576 52.1598 60.4146 51.3455 61.231C50.9944 61.5908 50.598 61.9139 50.025 62.4266ZM25.6159 67.8702C31.4356 67.8497 37.0094 65.5212 41.1142 61.3958C45.2191 57.2704 47.5196 51.6849 47.511 45.8652C47.4852 33.8018 37.6449 24.0196 25.5383 24.039C22.6575 24.0399 19.8053 24.6095 17.1451 25.7151C14.4849 26.8208 12.0693 28.4409 10.0366 30.4823C8.004 32.5237 6.39443 34.9464 5.30025 37.6113C4.20607 40.2762 3.6488 43.1309 3.66043 46.0117C3.68628 58.0666 13.5525 67.8918 25.6159 67.8702ZM48.4244 64.3395L44.0514 68.7492L52.9805 77.6632L57.3751 73.2902L48.4244 64.3395ZM46.8519 58.1226C44.7031 61.9028 41.5784 65.0365 37.8043 67.196L39.6978 69.0895L48.7454 60.0419L46.8519 58.1226Z" fill="#662D9C"/>
<path d="M70.1859 24.2221C72.8442 24.2221 75.501 24.2221 78.1564 24.2221C80.0155 24.2221 81.056 25.2561 81.0581 27.1066C81.0581 32.5078 81.0581 37.9077 81.0581 43.306C81.0581 45.1113 80.0112 46.1474 78.1952 46.1496C72.7954 46.1496 67.3948 46.1496 61.9936 46.1496C60.184 46.1496 59.1328 45.1048 59.1328 43.306C59.1328 37.8775 59.1328 32.4504 59.1328 27.0247C59.1328 25.282 60.2099 24.2243 61.9548 24.2243C64.7035 24.2157 67.4437 24.2221 70.1859 24.2221ZM66.1727 34.9133C65.1904 32.3283 65.5997 30.3615 67.379 29.0152C68.1538 28.4236 69.0998 28.0997 70.0746 28.0923C71.0494 28.085 72.0002 28.3945 72.7839 28.9742C74.5805 30.2969 74.9898 32.2055 74.0419 34.9263C76.4288 36.0852 77.3486 38.0628 77.2064 40.6435C77.1547 41.5999 77.2064 42.5607 77.2064 43.5129H78.458V26.8481H61.7738V43.5365H63.0082V42.7223C63.0082 41.727 62.9931 40.7318 63.0082 39.7387C63.0599 37.4725 64.1951 35.9021 66.1727 34.9133ZM74.5934 43.5301C74.5934 42.1062 74.6666 40.7124 74.5719 39.3316C74.49 38.1188 73.3978 37.1774 72.1699 37.1321C70.802 37.0912 69.432 37.0955 68.0641 37.1321C66.8922 37.1623 65.7871 37.9938 65.6794 39.1506C65.5437 40.6004 65.6471 42.0717 65.6471 43.5322L74.5934 43.5301ZM72.0342 32.5739C72.0295 32.1906 71.9113 31.8173 71.6944 31.5011C71.4776 31.185 71.1719 30.9402 70.816 30.7978C70.4602 30.6553 70.07 30.6216 69.6949 30.7008C69.3199 30.78 68.9767 30.9687 68.7088 31.2429C68.4409 31.5171 68.2603 31.8646 68.1899 32.2414C68.1194 32.6182 68.1622 33.0074 68.313 33.3599C68.4637 33.7124 68.7155 34.0123 69.0366 34.2217C69.3577 34.4311 69.7337 34.5406 70.117 34.5364C70.3718 34.5335 70.6235 34.4805 70.8578 34.3804C71.0921 34.2802 71.3043 34.1348 71.4824 33.9525C71.6605 33.7703 71.8009 33.5547 71.8955 33.3181C71.9902 33.0816 72.0374 32.8287 72.0342 32.5739Z" fill="#662D9C"/>
<path d="M46.9255 1.00216C49.611 1.00216 52.2973 1.00216 54.9843 1.00216C56.7938 1.00216 57.845 2.04694 57.8472 3.84569C57.8472 9.2728 57.8472 14.6999 57.8472 20.127C57.8472 21.8805 56.7873 22.9275 55.0252 22.9275C49.5981 22.9275 44.171 22.9275 38.7439 22.9275C36.986 22.9275 35.924 21.8698 35.9219 20.127C35.9219 14.6698 35.9219 9.21248 35.9219 3.75521C35.9219 2.06633 36.999 1.00001 38.7029 0.995697C41.4431 0.995697 44.1832 1.00216 46.9255 1.00216ZM38.5564 3.61734V20.2864H55.2255V3.61734H38.5564Z" fill="#662D9C"/>
<path d="M70.1421 1.00214C72.829 1.00214 75.516 1.00214 78.203 1.00214C80.0104 1.00214 81.0638 2.04692 81.0659 3.84351C81.0659 9.27206 81.0659 14.6999 81.0659 20.127C81.0659 21.8805 80.0082 22.9274 78.2439 22.9274C72.8168 22.9274 67.3897 22.9274 61.9626 22.9274C60.2048 22.9274 59.1428 21.8697 59.1406 20.127C59.1406 14.6697 59.1406 9.21606 59.1406 3.76597C59.1406 2.07493 60.2177 1.00861 61.9217 1.0043C64.6618 0.995682 67.4019 1.00214 70.1421 1.00214ZM61.7752 3.61733V20.2886H78.4464V3.61733H61.7752Z" fill="#662D9C"/>
<path d="M42.524 16.9108C42.509 18.1495 43.4827 18.7117 44.5425 18.1861C45.4042 17.7553 46.2659 16.9496 47.1146 16.9582C48.0021 16.9582 48.8573 17.8199 49.775 18.1689C50.2344 18.3347 50.7374 18.3347 51.1968 18.1689C51.7461 17.9535 51.843 17.3589 51.7396 16.7837C51.6104 15.9888 51.4381 15.2004 51.3734 14.4012C51.3597 14.0562 51.4715 13.718 51.6879 13.449C52.1963 12.8653 52.8577 12.4021 53.3208 11.7882C53.6073 11.409 53.8615 10.7671 53.7344 10.375C53.6073 9.98296 53.0192 9.64045 52.5625 9.47242C51.9981 9.29866 51.4104 9.21221 50.8198 9.21607C49.984 9.18161 49.4433 8.85417 49.1632 8.02481C48.9788 7.43554 48.6994 6.88035 48.336 6.38116C48.0581 6.01495 47.5627 5.57766 47.1792 5.59058C46.7484 5.60566 46.2206 6.02142 45.9535 6.40056C45.4882 7.07697 45.2125 7.88263 44.8053 8.60429C44.6594 8.83912 44.4275 9.00764 44.1591 9.0739C43.3189 9.24408 42.4357 9.26346 41.6257 9.50473C41.1949 9.62752 40.665 10.0174 40.5486 10.3987C40.4323 10.78 40.6607 11.3875 40.9342 11.7451C41.4302 12.344 41.982 12.8944 42.5822 13.3887C42.7518 13.516 42.878 13.6925 42.9436 13.8941C43.0091 14.0958 43.0108 14.3127 42.9484 14.5154C42.7588 15.3361 42.649 16.187 42.524 16.9108Z" fill="#662D9C"/>
<path d="M25.6302 26.6111C30.7539 26.6128 35.6671 28.6494 39.2895 32.273C42.9119 35.8965 44.9468 40.8105 44.9468 45.9341C44.9468 56.5887 36.2697 65.2916 25.641 65.3003C23.1006 65.301 20.585 64.8013 18.2377 63.8298C15.8905 62.8583 13.7575 61.434 11.9607 59.6382C10.1639 57.8424 8.73841 55.7102 7.7656 53.3635C6.79279 51.0168 6.29172 48.5014 6.29102 45.9611C6.29031 43.4207 6.78997 40.9051 7.76147 38.5578C8.73298 36.2105 10.1573 34.0776 11.9531 32.2808C13.7489 30.484 15.8811 29.0585 18.2278 28.0857C20.5745 27.1129 23.0899 26.6118 25.6302 26.6111ZM25.6302 29.1961C16.4168 29.153 8.8685 36.6108 8.82757 45.8027C8.81253 48.01 9.23255 50.1986 10.0636 52.2435C10.8947 54.2885 12.1206 56.1496 13.6712 57.7206C15.2217 59.2916 17.0667 60.5416 19.1006 61.3994C21.1344 62.2571 23.3174 62.7057 25.5247 62.7196C34.7123 62.7691 42.3273 55.279 42.3747 46.1216C42.4006 43.9071 41.9868 41.7096 41.1573 39.6563C40.3277 37.603 39.0989 35.7347 37.542 34.1598C35.9851 32.5849 34.1311 31.3346 32.0875 30.4815C30.0439 29.6283 27.8512 29.1892 25.6367 29.1896L25.6302 29.1961Z" fill="#662D9C"/>
<path d="M42.5242 16.9108C42.6492 16.187 42.7633 15.3361 42.9551 14.5003C43.0174 14.2976 43.0158 14.0807 42.9502 13.879C42.8847 13.6774 42.7585 13.5009 42.5889 13.3737C41.9886 12.8793 41.4368 12.329 40.9409 11.73C40.6673 11.3724 40.4368 10.7649 40.5553 10.3836C40.6738 10.0024 41.2016 9.61245 41.6324 9.48966C42.451 9.25485 43.3256 9.23547 44.1657 9.05882C44.4341 8.99257 44.6661 8.82404 44.812 8.58921C45.2191 7.86755 45.4948 7.06189 45.9602 6.38548C46.2273 5.99772 46.7594 5.59058 47.1859 5.5755C47.5693 5.56258 48.0648 6.00634 48.3427 6.36609C48.7061 6.86528 48.9855 7.42046 49.1699 8.00973C49.4499 8.83909 49.9906 9.16653 50.8265 9.201C51.417 9.19714 52.0047 9.28358 52.5692 9.45734C53.0259 9.62537 53.6118 9.96573 53.7411 10.3599C53.8703 10.7542 53.614 11.394 53.3275 11.7731C52.8643 12.387 52.203 12.8502 51.6946 13.434C51.4781 13.7029 51.3664 14.0412 51.3801 14.3861C51.4447 15.1853 51.617 15.9738 51.7463 16.7687C51.8411 17.3438 51.7463 17.9341 51.2034 18.1538C50.744 18.3196 50.2411 18.3196 49.7817 18.1538C48.864 17.7984 48.0088 16.9518 47.1213 16.9431C46.2596 16.9431 45.4151 17.7445 44.5492 18.171C43.4828 18.7117 42.5091 18.1495 42.5242 16.9108Z" fill="#662D9C"/>
<path d="M77.1635 4.92923V19.0262H74.6797V4.93785L77.1635 4.92923Z" fill="#662D9C"/>
<path d="M73.3145 7.51855V18.9982H70.8027V7.51855H73.3145Z" fill="#662D9C"/>
<path d="M69.4037 19.0262H66.9199V10.095H69.4037V19.0262Z" fill="#662D9C"/>
<path d="M65.5508 12.6584V19.0004H63.0605V12.6584H65.5508Z" fill="#662D9C"/>
<path d="M25.7931 34.5579C28.8671 34.8337 31.9433 35.0986 35.0152 35.3938C35.9092 35.4778 36.2646 35.9 36.3594 36.9017C36.6007 39.4673 36.8204 42.0351 37.0509 44.6007C37.0593 44.8693 37.0852 45.1369 37.1284 45.4021C37.3094 46.2164 37.0552 46.8346 36.4628 47.4249C32.3828 51.4719 28.3157 55.5325 24.2615 59.6068C23.2749 60.5913 22.7277 60.5934 21.7562 59.624L12.0623 49.9302C11.1253 48.991 11.1296 48.433 12.0796 47.483C16.161 43.3987 20.2468 39.3187 24.3369 35.243C24.7074 34.8746 25.2223 34.6506 25.6682 34.3597L25.7931 34.5579ZM23.0595 57.0972C23.0444 57.0972 23.1069 57.0972 23.1392 57.0649C26.8487 53.3654 30.5524 49.6616 34.2505 45.9536C34.4181 45.759 34.5051 45.5079 34.4939 45.2513C34.3194 43.0282 34.0975 40.8115 33.9316 38.5884C33.8885 38.0046 33.643 37.8301 33.0958 37.7892C30.9804 37.6298 28.8671 37.451 26.7582 37.2334C26.5384 37.1968 26.3128 37.2173 26.1032 37.2927C25.8935 37.3681 25.7066 37.496 25.5605 37.6643C22.0764 41.1741 18.5838 44.6725 15.0825 48.1595C14.9016 48.3426 14.7357 48.5407 14.6258 48.6592L23.0595 57.0972Z" fill="#662D9C"/>
<path d="M32.7168 42.6771C32.7233 43.1684 32.6323 43.6561 32.449 44.112C32.2657 44.5679 31.9938 44.9829 31.649 45.3329C31.3041 45.683 30.8933 45.9611 30.4402 46.1512C29.9871 46.3413 29.5008 46.4396 29.0094 46.4404C28.0312 46.43 27.0955 46.0387 26.401 45.3498C25.7064 44.6609 25.3076 43.7284 25.2892 42.7503C25.2857 42.2591 25.3797 41.7722 25.5655 41.3175C25.7514 40.8629 26.0255 40.4495 26.372 40.1014C26.7185 39.7533 27.1306 39.4773 27.5844 39.2893C28.0382 39.1014 28.5247 39.0052 29.0159 39.0063C29.5004 39.0026 29.9808 39.0948 30.4295 39.2776C30.8783 39.4604 31.2864 39.7302 31.6304 40.0714C31.9744 40.4126 32.2475 40.8185 32.4339 41.2657C32.6204 41.7129 32.7165 42.1926 32.7168 42.6771ZM30.1318 42.69C30.1327 42.5429 30.1039 42.3971 30.0472 42.2614C29.9904 42.1257 29.9068 42.0028 29.8014 41.9002C29.696 41.7976 29.5709 41.7174 29.4337 41.6643C29.2965 41.6112 29.15 41.5864 29.003 41.5914C28.7065 41.5913 28.4216 41.7069 28.2092 41.9138C27.9967 42.1206 27.8734 42.4022 27.8656 42.6986C27.8707 43.0093 27.9982 43.3053 28.2205 43.5224C28.4428 43.7394 28.7418 43.8599 29.0525 43.8576C29.3491 43.8404 29.6276 43.7094 29.8298 43.4918C30.0321 43.2743 30.1426 42.987 30.1382 42.69H30.1318Z" fill="#662D9C"/>
</svg>
