<svg width="79" height="80" viewBox="0 0 79 80" fill="none" xmlns="http://www.w3.org/2000/svg">
<path d="M47.6168 63.2801C47.6168 65.291 47.5687 67.2188 47.6387 69.151C47.6693 69.9628 48.3324 70.2692 49.0982 70.2801C49.9976 70.2976 50.8991 70.2801 51.7985 70.3042C55.7131 70.4508 59.037 73.8053 59.1639 77.7156C59.2164 79.2779 58.5381 79.9935 56.9757 79.9935C46.0041 79.9935 35.0311 79.9935 24.0567 79.9935C23.293 79.9935 22.5249 80.0044 21.7634 79.9935C20.5184 79.9694 19.8072 79.2254 19.8094 77.9716C19.8094 73.9563 23.1683 70.4595 27.1748 70.3129C28.1026 70.2779 29.0326 70.3129 29.9604 70.2845C30.6912 70.2626 31.3171 69.9344 31.3433 69.1641C31.4068 67.2364 31.363 65.3042 31.363 63.2867H6.36301C2.42427 63.2867 0.00195312 60.8643 0.00195312 56.8972C0.00195312 40.0482 0.00195312 23.1991 0.00195312 6.35013C0.00195312 2.44203 2.43303 0.00439453 6.32581 0.00439453H72.6562C76.5534 0.00439453 78.9844 2.43547 78.9866 6.35013C78.9866 23.2254 78.9866 40.1014 78.9866 56.9781C78.9866 60.8731 76.5446 63.2932 72.6409 63.2932H47.6168V63.2801ZM76.3652 48.0263V47.221C76.3652 33.5668 76.3652 19.911 76.3652 6.25385C76.3652 3.90811 75.0676 2.62584 72.7109 2.62584H6.28861C3.89473 2.62584 2.6234 3.90593 2.6234 6.32387C2.6234 19.9256 2.6234 33.5266 2.6234 47.1269V48.0285L76.3652 48.0263ZM76.3433 50.7374H2.62121C2.62121 52.7812 2.71531 54.7768 2.59933 56.7593C2.45491 59.2342 4.15513 60.6981 6.50086 60.6981C28.4965 60.6441 50.4921 60.6331 72.4877 60.6652C72.7875 60.6652 73.0873 60.6652 73.3871 60.6652C74.8838 60.5602 76.2645 59.337 76.3214 57.8425C76.409 55.4836 76.3433 53.1291 76.3433 50.7374ZM22.514 77.3086H56.4746C56.0019 74.7156 54.002 72.9781 51.4615 72.9147C50.6978 72.895 49.9297 72.9147 49.1704 72.9147C46.6125 72.8819 44.9866 71.2604 44.9582 68.6959C44.9407 67.1948 44.9582 65.6915 44.9582 64.1904C44.9582 63.9037 44.9276 63.6193 44.9079 63.2889H34.0348V64.2735C34.0348 65.7462 34.0479 67.221 34.0348 68.6959C34.002 71.2604 32.3761 72.8819 29.8203 72.9147C29.0567 72.9147 28.2886 72.9147 27.5271 72.9147C24.9888 72.9781 22.9801 74.7221 22.5118 77.3086H22.514Z" fill="#265294"/>
<path d="M37.9055 24.5733C37.9055 28.2122 37.9055 31.6236 37.9055 35.0328C37.919 35.5266 37.8645 36.0199 37.7436 36.4989C37.3388 37.9124 36.1134 38.8074 34.5357 38.814C29.6517 38.8315 24.7647 38.8315 19.8749 38.814C17.8158 38.814 16.4941 37.431 16.4788 35.3129C16.4569 32.1181 16.4788 28.9256 16.4788 25.7308V24.6542L14.2906 26.2976C12.4022 27.7199 10.6123 27.4989 9.15714 25.663C8.46129 24.7877 7.75889 23.9124 7.07618 23.0372C5.82891 21.4157 6.01928 19.5361 7.61228 18.256C9.90768 16.4092 12.2075 14.547 14.5751 12.8096C15.3346 12.292 16.22 11.9896 17.1374 11.9343C19.0674 11.8052 21.0105 11.8796 22.9471 11.8993C24.2206 11.9124 24.7961 12.4026 25.1353 13.6674C25.5248 15.1356 26.4263 15.7527 27.7458 15.4901C28.6889 15.3019 29.0849 14.6302 29.3147 13.7987C29.7217 12.3129 30.225 11.9015 31.7217 11.8949C33.4963 11.8949 35.2687 11.8949 37.0434 11.8949C38.1431 11.8711 39.2157 12.2387 40.0696 12.9321C42.2928 14.698 44.5444 16.4332 46.7654 18.1838C48.4525 19.5229 48.6692 21.3763 47.365 23.0744C46.6495 24.0043 45.9274 24.93 45.1768 25.8402C43.8858 27.4289 42.0412 27.663 40.3956 26.4551C39.6188 25.8731 38.8377 25.2801 37.9055 24.5733ZM27.1834 36.1882H33.9799C35.2097 36.1882 35.2928 36.105 35.2928 34.8927C35.2928 31.1262 35.2928 27.3588 35.2928 23.5908C35.2928 22.6761 35.5598 21.9124 36.4307 21.4945C37.2665 21.0963 38.0105 21.3282 38.7108 21.8731C39.6998 22.6455 40.7108 23.3895 41.7129 24.1444C42.5423 24.7702 42.6867 24.7593 43.3103 23.9803C43.9339 23.2013 44.5269 22.3807 45.1834 21.6192C45.6801 21.0328 45.6451 20.6083 45.0193 20.1269C42.8311 18.4507 40.6867 16.7199 38.4876 15.0591C38.0505 14.7472 37.5336 14.5665 36.9974 14.5383C35.4657 14.4704 33.9339 14.5383 32.4022 14.5033C31.9646 14.5033 31.7917 14.6542 31.6473 15.0437C30.8902 17.0591 29.3059 18.1641 27.2206 18.1706C25.1353 18.1772 23.5204 17.035 22.7983 15.0547C22.6517 14.6499 22.4744 14.5011 22.0477 14.5054C20.4657 14.5273 18.8814 14.4901 17.2994 14.5339C16.867 14.5392 16.446 14.6724 16.0893 14.9168C13.818 16.6674 11.586 18.4573 9.32782 20.2232C8.7939 20.6411 8.80703 21.0415 9.21184 21.5361C9.88799 22.3566 10.562 23.1838 11.1922 24.0394C11.6495 24.6608 12.0849 24.7177 12.6889 24.2341C13.7326 23.4004 14.8048 22.5973 15.8858 21.8118C16.9055 21.07 18.1659 21.2319 18.7304 22.2494C18.9776 22.7597 19.0991 23.3216 19.0849 23.8884C19.1156 27.6083 19.0981 31.3151 19.1024 35.0284C19.1024 36.0656 19.2447 36.2013 20.2972 36.2013C22.5919 36.1955 24.8843 36.1911 27.1746 36.1882H27.1834Z" fill="#265294"/>
<path d="M62.236 36.7747H53.4023C53.1299 36.7842 52.8571 36.774 52.5862 36.744C52.2886 36.7054 52.014 36.5635 51.8104 36.3431C51.6068 36.1226 51.4871 35.8376 51.4723 35.5379C51.4574 35.2382 51.5483 34.9428 51.7291 34.7033C51.9099 34.4638 52.1691 34.2954 52.4614 34.2276C52.7551 34.1684 53.0548 34.1442 53.3542 34.1554C59.2973 34.1554 65.2412 34.1554 71.1857 34.1554C71.458 34.1428 71.7308 34.1589 71.9997 34.2035C72.7043 34.3523 73.1069 34.8009 73.0719 35.5318C73.0369 36.2626 72.6146 36.7068 71.8881 36.7484C71.0128 36.7965 70.1376 36.7725 69.2623 36.7747H62.236Z" fill="#265294"/>
<path d="M62.2623 17.1663H71.1792C71.4517 17.156 71.7247 17.1678 71.9954 17.2013C72.2848 17.2464 72.5501 17.3895 72.7466 17.6067C72.9431 17.824 73.0591 18.1022 73.075 18.3947C73.0909 18.6873 73.0058 18.9764 72.8339 19.2136C72.6621 19.4509 72.4139 19.6219 72.131 19.6981C71.8122 19.7683 71.4856 19.797 71.1595 19.7834C65.2426 19.7834 59.3258 19.7834 53.4089 19.7834C53.2995 19.7834 53.1901 19.7834 53.0807 19.7834C52.061 19.7571 51.4527 19.2604 51.4571 18.4552C51.4614 17.6499 52.0588 17.1685 53.1004 17.1663C56.1551 17.1598 59.2098 17.1663 62.2623 17.1663Z" fill="#265294"/>
<path d="M62.2647 28.291C59.3194 28.291 56.3748 28.291 53.431 28.291C53.1048 28.3052 52.778 28.2817 52.4572 28.221C52.1707 28.1557 51.9155 27.9935 51.7347 27.7618C51.5539 27.5301 51.4587 27.243 51.4651 26.9492C51.4716 26.6554 51.5793 26.3728 51.77 26.1492C51.9607 25.9256 52.2228 25.7747 52.5119 25.7221C52.8082 25.6797 53.1077 25.6636 53.4069 25.6739H71.1574C71.4028 25.6677 71.6483 25.6758 71.8927 25.698C72.6148 25.7855 73.0261 26.2013 73.0765 26.9278C73.1268 27.6542 72.652 28.1575 71.9145 28.2626C71.6436 28.2933 71.3709 28.3042 71.0984 28.2954L62.2647 28.291Z" fill="#265294"/>
<path d="M43.3125 55.6762C43.309 56.4294 43.0829 57.1648 42.6624 57.7898C42.242 58.4148 41.6461 58.9015 40.9498 59.1886C40.2534 59.4758 39.4877 59.5506 38.7489 59.4035C38.0102 59.2565 37.3314 58.8943 36.798 58.3624C36.2646 57.8306 35.9005 57.1528 35.7514 56.4145C35.6022 55.6762 35.6748 54.9102 35.96 54.213C36.2451 53.5159 36.7301 52.9186 37.3539 52.4964C37.9777 52.0742 38.7125 51.8459 39.4657 51.8403C39.9715 51.8348 40.4733 51.9301 40.9418 52.1208C41.4103 52.3115 41.8361 52.5936 42.1943 52.9508C42.5524 53.308 42.8358 53.7329 43.0278 54.2009C43.2198 54.6689 43.3166 55.1704 43.3125 55.6762ZM40.6867 55.7156C40.6899 55.3987 40.5671 55.0936 40.3453 54.8673C40.1235 54.6409 39.8208 54.512 39.504 54.5088C39.1871 54.5056 38.8819 54.6284 38.6556 54.8502C38.4293 55.072 38.3004 55.3747 38.2972 55.6915C38.2956 55.8484 38.3249 56.0041 38.3835 56.1497C38.4421 56.2952 38.5288 56.4278 38.6386 56.5399C38.7484 56.6519 38.8793 56.7413 39.0236 56.8028C39.168 56.8643 39.323 56.8967 39.4799 56.8983C39.6368 56.8999 39.7925 56.8706 39.938 56.812C40.0836 56.7534 40.2162 56.6667 40.3282 56.5569C40.4403 56.4471 40.5296 56.3162 40.5911 56.1719C40.6526 56.0275 40.6851 55.8725 40.6867 55.7156Z" fill="#265294"/>
</svg>
