<svg width="89" height="80" viewBox="0 0 89 80" fill="none" xmlns="http://www.w3.org/2000/svg">
<path d="M0.999865 10.8722C1.54658 9.10271 2.57439 7.79972 4.47876 7.3988C4.92469 7.31755 5.37785 7.28275 5.83096 7.29493C10.6614 7.28764 15.4925 7.28764 20.3242 7.29493H21.3648V2.65518C21.3648 0.21139 21.5817 0 24.0564 0H65.6592C67.5763 0 67.939 0.364474 67.939 2.30165C67.939 3.91991 67.939 5.53816 67.939 7.29128H68.8903C73.7778 7.29128 78.6654 7.29128 83.553 7.29128C86.5253 7.29128 88.3112 9.08813 88.3112 12.075C88.3112 26.3429 88.3112 40.6108 88.3112 54.8787C88.3112 57.9221 86.5508 59.6679 83.4838 59.6697H51.9933V68.4043H64.3854C66.0255 68.4043 66.472 68.8417 66.4738 70.4599V77.1261H69.3258V79.9982H19.9834V77.1753H22.7735C22.7935 76.8309 22.8227 76.5594 22.8245 76.2878C22.8245 74.2978 22.8245 72.3096 22.8245 70.3196C22.8245 68.9054 23.3056 68.4116 24.7125 68.4079C28.548 68.4007 32.384 68.4007 36.2207 68.4079H37.2959V59.6697H36.29C26.3727 59.6697 16.4553 59.615 6.53804 59.7061C3.81907 59.7298 1.92563 58.866 0.998047 56.2437L0.999865 10.8722ZM64.974 35.2208C64.6514 35.5853 64.4619 35.7821 64.2851 35.9935C62.3297 38.3225 60.3853 40.6588 58.4135 42.9732C58.1314 43.3241 57.7662 43.5991 57.351 43.7732C54.7888 44.6953 52.2162 45.5865 49.6333 46.4466C48.3577 46.8712 47.4009 46.0202 47.6069 44.6972C47.9968 42.2005 48.3522 39.6966 48.8224 37.2254C48.9738 36.4864 49.3028 35.7953 49.7809 35.2117C54.6631 29.331 59.5925 23.4885 64.4838 17.6132C64.7937 17.2275 64.9731 16.7534 64.9959 16.2591C65.0341 12.1096 65.0196 7.95827 65.0159 3.80874C65.0159 3.53721 64.9795 3.26203 64.9612 2.99961H24.3425V52.3493H64.9813L64.974 35.2208ZM3.90472 47.9993H21.2919V10.1961H6.05693C4.3111 10.1961 3.90472 10.6043 3.90472 12.3575V47.9993ZM85.3644 48.0102C85.3772 47.7259 85.3954 47.5036 85.3954 47.2813C85.3954 35.5416 85.3954 23.8025 85.3954 12.0641C85.3954 10.71 84.8888 10.198 83.5512 10.1961C78.6053 10.1961 73.6606 10.1961 68.7171 10.1961C68.4729 10.1961 68.2306 10.2289 67.9882 10.2472V14.0413C68.9832 13.921 69.9418 13.6659 70.8803 13.7188C73.2038 13.8536 74.9077 15.0473 75.8353 17.1813C76.7957 19.39 76.4184 21.4729 74.8968 23.3172C72.761 25.9013 70.5741 28.4435 68.4492 31.0385C68.1446 31.4294 67.9711 31.9064 67.9536 32.4016C67.9189 37.322 67.9317 42.2424 67.9353 47.1537C67.9353 47.4271 67.9681 47.7004 67.9882 48.0029L85.3644 48.0102ZM3.90472 50.9934V54.5051C3.90472 56.3985 4.26919 56.763 6.11889 56.763H83.1685C83.4528 56.763 83.7371 56.763 84.0214 56.7521C84.7321 56.6992 85.297 56.2929 85.3298 55.6259C85.4191 54.0841 85.359 52.5278 85.359 51.008H67.939V52.8468C67.939 55.0336 67.6492 55.3288 65.4988 55.3288H23.4022C21.8259 55.3288 21.3812 54.8769 21.3739 53.2914C21.3739 52.5351 21.3739 51.7789 21.3739 50.9952L3.90472 50.9934ZM63.5307 71.382H25.7658V77.1024H63.5307V71.382ZM65.497 20.9645L52.407 36.5658L56.8626 40.3071L69.9563 24.704L65.497 20.9645ZM40.3302 68.335H48.9536V59.7171H40.3302V68.335ZM71.806 22.4497C72.9888 21.2178 73.9455 20.0205 73.1673 18.2929C72.6625 17.1721 71.7477 16.6036 70.5377 16.589C69.0051 16.5726 68.1886 17.6095 67.4214 18.7758L71.806 22.4497ZM54.1382 41.8215L51.3737 39.507C51.1914 40.7663 51.0329 41.8087 50.8634 42.955L54.1382 41.8215Z" fill="#2B749D"/>
</svg>
