<svg width="51" height="81" viewBox="0 0 51 81" fill="none" xmlns="http://www.w3.org/2000/svg">
<path d="M7.08371 80C6.51095 79.8465 5.94785 79.659 5.39739 79.4386C2.72391 78.1863 1.40699 76.0492 1.35899 73.1211C1.33395 71.5329 1.35899 69.9447 1.35899 68.3564C1.35899 53.2575 1.35273 38.1613 1.34021 23.0679C1.34021 22.5649 1.06472 22.0599 0.912363 21.5569C0.62644 20.6261 0.163119 19.7099 0.0775511 18.7624C-0.145097 16.1132 0.138209 13.4459 0.912363 10.9026C1.23585 9.82781 1.27342 8.65699 1.34438 7.52373C1.41325 6.4343 1.34438 5.33652 1.36316 4.24501C1.39864 1.66126 3.06827 0.0145992 5.64992 0.0125122C9.68484 0.0125122 13.7198 0.0125122 17.7547 0.0125122H44.9362C47.762 0.0125122 49.3711 1.62996 49.3815 4.47667C49.3815 4.60815 49.3815 4.73755 49.3815 4.86903C49.1728 7.8347 49.7676 10.6835 50.3979 13.5719C50.8153 15.5108 50.6275 17.5999 50.5774 19.6243C50.5628 20.2504 50.2101 20.9329 49.8511 21.4839C49.5242 21.978 49.358 22.5612 49.3753 23.1535C49.3836 39.7106 49.3836 56.2677 49.3753 72.8248C49.3753 76.1202 47.7703 78.5829 44.9716 79.6034C44.5375 79.7621 44.0888 79.881 43.6464 80.0209L7.08371 80ZM4.02621 23.9403V24.7751C4.02621 40.7896 4.02621 56.8027 4.02621 72.8143C4.02621 75.7654 5.61444 77.3474 8.56341 77.3474H42.1646C45.1136 77.3474 46.7122 75.7633 46.7122 72.8248C46.7122 56.8103 46.7122 40.7965 46.7122 24.7835V24.0467C45.6687 23.9424 44.669 23.9925 43.7904 23.7149C42.9117 23.4373 42.1208 22.8363 41.2859 22.3604C39.2219 24.4161 35.9619 24.7375 33.3719 22.2561C32.2867 23.3413 30.9885 23.9904 29.4233 24.0008C27.858 24.0113 26.5014 23.3622 25.4078 22.2644C23.0662 24.4808 19.9294 24.6708 17.379 22.2936C14.3361 24.6311 12.5246 24.6269 9.35649 22.2749C7.60964 23.7587 7.32998 23.8485 4.02621 23.9403ZM46.7101 7.9474C46.7101 6.81206 46.7101 5.72471 46.7101 4.63528C46.7101 3.03035 46.3366 2.66304 44.7295 2.66304H5.99637C5.76259 2.65257 5.52838 2.65675 5.29512 2.67556C4.58971 2.76113 4.09508 3.14723 4.06795 3.86517C4.01786 5.2113 4.05335 6.55953 4.05335 7.9474H46.7101ZM3.10583 13.286H47.6222C47.4823 12.6766 47.3112 12.1319 47.2402 11.5747C47.1463 10.8421 46.8124 10.6397 46.0611 10.6417C32.263 10.6668 18.4643 10.6731 4.66484 10.6605C4.48431 10.6384 4.30153 10.6426 4.12221 10.6731C3.95317 10.7273 3.71733 10.8463 3.67768 10.9861C3.46271 11.7187 3.29993 12.4721 3.10583 13.286ZM2.73017 16.0451C2.73017 17.0886 2.65086 18.1091 2.75103 19.1067C2.87834 20.3861 4.06378 21.3294 5.35982 21.3315C6.65587 21.3336 7.87678 20.3506 7.99157 19.0358C8.07505 18.0611 8.00826 17.074 8.00826 16.043L2.73017 16.0451ZM42.7135 16.0451C42.7135 17.0239 42.6884 17.9067 42.7135 18.7874C42.7303 19.4308 42.9842 20.0453 43.4264 20.5129C43.8686 20.9805 44.468 21.2683 45.1094 21.3211C46.4388 21.4526 47.7286 20.6198 47.9269 19.2883C48.0834 18.2448 47.9582 17.1408 47.9582 16.0451H42.7135ZM10.7235 16.0409C10.7235 17.074 10.6421 18.0632 10.7423 19.0337C10.8169 19.6747 11.1275 20.265 11.6137 20.6895C12.0999 21.1139 12.7267 21.3421 13.3719 21.3294C14.6346 21.3294 15.8367 20.4028 15.964 19.1819C16.0684 18.1592 15.9849 17.1178 15.9849 16.0513L10.7235 16.0409ZM34.7243 16.0409C34.7243 17.0093 34.693 17.9401 34.7243 18.8646C34.7536 19.4805 35.0029 20.0655 35.4268 20.5132C35.8508 20.9609 36.4213 21.2416 37.0347 21.3044C38.3078 21.4588 39.6059 20.7346 39.8542 19.4991C40.0776 18.3825 40.0212 17.2034 40.088 16.0409H34.7243ZM18.7794 16.0409C18.7794 17.1595 18.673 18.2281 18.8086 19.2654C18.9693 20.4988 20.1256 21.3357 21.3694 21.3315C22.5674 21.3315 23.7695 20.4863 23.9177 19.3321C24.0533 18.2678 23.9469 17.1721 23.9469 16.0409H18.7794ZM32.0362 15.9929C31.0324 15.9929 30.1308 15.9762 29.2292 15.9929C28.4111 16.0138 27.595 16.0743 26.7769 16.1181C26.754 16.9696 26.6893 17.8232 26.7185 18.6747C26.7686 20.2045 27.8684 21.296 29.321 21.3253C30.7736 21.3545 31.9256 20.2817 32.0341 18.7666C32.0863 17.8921 32.0383 17.0093 32.0383 15.9992L32.0362 15.9929Z" fill="#8547C1"/>
<path d="M34.5146 50.744C34.9759 52.6849 34.4875 54.2773 32.845 55.3542C31.4634 56.2537 29.967 56.2579 28.5729 55.3542C26.8699 54.2585 26.442 52.6307 26.8907 50.6835H23.8541C24.3049 52.7496 23.7978 54.4297 21.9173 55.5045C21.227 55.8809 20.4404 56.0436 19.6574 55.9718C18.8744 55.9001 18.1304 55.5972 17.52 55.1017C16.1404 53.9914 15.7856 52.5033 16.3157 50.5102C15.9171 50.026 15.5602 49.6483 15.2722 49.2246C14.3477 47.9077 14.5 46.1797 15.865 45.0151C17.0024 44.0446 17.2299 43.1201 16.8229 41.6758C15.746 37.8503 14.8527 33.9726 13.9136 30.1095C13.7717 29.5293 13.5379 29.2747 12.916 29.3394C12.5279 29.3822 12.1356 29.3632 11.7535 29.2831C11.4437 29.2214 11.1669 29.0491 10.9749 28.7983C10.7829 28.5475 10.6887 28.2354 10.71 27.9202C10.7251 27.6039 10.8575 27.3045 11.0812 27.0804C11.305 26.8562 11.6041 26.7234 11.9205 26.7077C12.6475 26.6533 13.3779 26.6617 14.1035 26.7327C15.2555 26.8788 15.9547 27.6197 16.2803 28.705C16.5328 29.5523 16.7728 30.4038 16.9606 31.2678C17.088 31.848 17.3488 32.0359 17.9624 32.0317C23.3532 32.0045 28.744 32.015 34.1327 32.0171C36.5411 32.0171 37.5617 33.1566 37.2841 35.5233C37.0066 37.89 36.7332 40.2796 36.4493 42.6567C36.2531 44.3785 35.2242 45.324 33.492 45.3261C29.0654 45.3261 24.6388 45.3428 20.2122 45.3135C19.536 45.3135 19.008 45.4492 18.5864 45.9918C18.3631 46.2777 18.0417 46.4864 17.8288 46.7786C17.6666 47.0504 17.5304 47.3369 17.4219 47.6343C17.7052 47.765 17.995 47.8813 18.2901 47.9828C18.4708 48.008 18.6541 48.008 18.8348 47.9828H34.2245C35.3161 47.9828 35.8942 48.3522 36.0006 49.114C36.1196 49.9446 35.6709 50.4581 34.5146 50.744ZM27.976 42.6234V40.0521H24.0962V42.6234H27.976ZM27.9593 37.3119V34.7219H24.0795V37.3119H27.9593ZM30.758 34.7156V37.2868H34.3894C34.4896 36.4103 34.5856 35.5796 34.6837 34.7114L30.758 34.7156ZM34.0534 40.0688H30.7371V42.5983H33.7654C33.8635 41.7197 33.9553 40.9036 34.0471 40.0688H34.0534ZM21.3058 37.316V34.7406H17.8518C18.0772 35.6527 18.2859 36.4917 18.4904 37.316H21.3058ZM21.3476 52.0025C21.3492 51.8275 21.3162 51.6539 21.2503 51.4918C21.1844 51.3297 21.087 51.1822 20.9637 51.058C20.8405 50.9338 20.6938 50.8352 20.5322 50.7681C20.3706 50.7009 20.1973 50.6665 20.0223 50.6668C19.6693 50.6787 19.3348 50.8277 19.0897 51.0821C18.8446 51.3365 18.7083 51.6764 18.7096 52.0296C18.7193 52.3698 18.8603 52.693 19.1031 52.9315C19.3459 53.1701 19.6716 53.3053 20.0119 53.3089C20.1864 53.3161 20.3606 53.2874 20.5236 53.2246C20.6867 53.1618 20.8351 53.0662 20.9597 52.9438C21.0843 52.8213 21.1824 52.6746 21.2481 52.5127C21.3137 52.3508 21.3455 52.1771 21.3413 52.0025H21.3476ZM32.0394 51.9899C32.0281 51.6368 31.8805 51.3018 31.6276 51.0551C31.3747 50.8085 31.0361 50.6693 30.6829 50.6668C30.5078 50.6713 30.3354 50.7107 30.1757 50.7825C30.016 50.8544 29.8723 50.9574 29.7528 51.0854C29.6333 51.2134 29.5405 51.3639 29.4798 51.5282C29.4192 51.6925 29.3918 51.8672 29.3993 52.0421C29.3999 52.2108 29.434 52.3777 29.4996 52.5331C29.5653 52.6884 29.6613 52.8292 29.7819 52.9471C29.9025 53.065 30.0454 53.1577 30.2023 53.2199C30.3591 53.282 30.5267 53.3123 30.6954 53.3089C30.87 53.3109 31.0433 53.2782 31.2053 53.2128C31.3672 53.1475 31.5146 53.0507 31.639 52.9281C31.7633 52.8054 31.8622 52.6594 31.9299 52.4984C31.9975 52.3374 32.0326 52.1646 32.0332 51.9899H32.0394ZM21.3246 40.0563H19.1228C19.3482 40.9662 19.5569 41.8094 19.7489 42.6087H21.3142L21.3246 40.0563Z" fill="#8547C1"/>
<path d="M25.3503 67.9892C23.1902 67.9892 21.0281 67.9892 18.8659 67.9892C16.4408 67.9746 14.7023 66.2799 14.7169 63.9675C14.7294 61.7031 16.4825 60.0021 18.8576 60.0021C23.2069 59.991 27.5563 59.991 31.9057 60.0021C34.2661 60.0021 36.015 61.7239 36.0171 63.9925C36.0192 66.2611 34.287 67.9579 31.914 67.9871H25.3503V67.9892ZM25.3315 65.324C27.4665 65.324 29.6016 65.324 31.7366 65.324C32.7906 65.324 33.3749 64.8211 33.3541 63.9633C33.3353 63.1452 32.7572 62.6652 31.7429 62.6652C27.4978 62.6652 23.2542 62.6652 19.012 62.6652C17.9685 62.6652 17.3716 63.1744 17.3945 64.0363C17.4133 64.8712 17.9747 65.3199 19.0057 65.324C21.1053 65.3282 23.2153 65.324 25.3315 65.324Z" fill="#8547C1"/>
<path d="M25.4145 72.013C27.9635 72.013 30.5118 72.013 33.0593 72.013C34.1028 72.013 34.7289 72.5431 34.7039 73.3612C34.6789 74.1793 34.0778 74.6718 33.0823 74.6739C27.9343 74.6739 22.7863 74.6739 17.6383 74.6739C16.6636 74.6739 16.0438 74.1417 16.0333 73.3466C16.0229 72.5514 16.6407 72.0171 17.6153 72.015C20.2136 72.0088 22.8141 72.013 25.4145 72.013Z" fill="#8547C1"/>
</svg>
