<svg width="81" height="80" viewBox="0 0 81 80" fill="none" xmlns="http://www.w3.org/2000/svg">
<path d="M0.0410156 79.951V77.3557H25.3841V73.3381C24.8365 73.2602 24.3736 73.2224 23.9217 73.1156C21.0994 72.5057 18.8268 70.1218 18.7267 67.2394C18.6043 63.6358 18.5419 60.0033 18.8624 56.422C19.2586 52.0038 21.5913 48.5627 25.2794 46.1032C26.6149 45.2128 28.0617 44.4828 29.4195 43.6214C31.1177 42.5441 32.7804 41.4156 34.4498 40.2938C34.9239 39.9755 34.6902 38.9049 34.1026 38.6066C31.0947 37.1452 28.7604 34.5879 27.5787 31.4595C27.1625 30.3823 26.9421 29.2337 26.6038 28.014C24.9767 28.0852 23.4565 27.6156 22.3481 26.2334C21.6414 25.3609 21.2809 24.2587 21.3353 23.1373C21.4266 20.542 23.116 19.0796 26.6639 18.5743C26.6639 16.373 26.6416 14.1561 26.6639 11.9414C26.6652 10.5136 27.1314 9.12511 27.992 7.98583C28.8526 6.84654 30.0608 6.01846 31.4338 5.62682C32.1011 5.4397 32.7907 5.34386 33.4838 5.34192C37.8122 5.31669 42.1429 5.31669 46.4758 5.34192C50.4311 5.35527 53.2912 8.22434 53.3135 12.1863C53.3269 14.3208 53.3135 16.4532 53.3135 18.6567C55.0407 18.6077 56.5053 19.0529 57.5848 20.3884C58.3217 21.2735 58.6991 22.4032 58.6421 23.5535C58.5419 26.1933 56.6633 27.7936 53.2846 28.0607C53.1666 28.655 53.0776 29.2805 52.9151 29.8859C51.8712 33.7989 49.5608 36.7147 45.9572 38.5666C45.5121 38.7891 45.305 39.0117 45.2895 39.5526C45.2739 40.0935 45.5521 40.2671 45.9572 40.5275C47.4151 41.4668 48.8062 42.5107 50.2619 43.4589C52.165 44.6964 54.2372 45.7136 56.0023 47.1226C59.4434 49.8714 61.155 53.5997 61.2886 57.9956C61.3732 60.7979 61.3197 63.6047 61.3064 66.4114C61.293 70.0974 58.8981 72.7772 55.2344 73.238C55.0719 73.258 54.9094 73.2869 54.6201 73.3337V77.3535H79.9408V79.951H0.0410156ZM51.9513 53.3993H28.0617V71.9648H51.9513V53.3993ZM46.665 13.6598C42.344 14.9689 37.7338 14.9813 33.4059 13.6954C33.3703 13.7978 33.3525 13.8245 33.3547 13.8512C33.4215 16.8471 32.3241 19.1931 29.6042 20.6599C29.53 20.7098 29.4678 20.7757 29.4224 20.8527C29.3769 20.9297 29.3493 21.016 29.3415 21.1051C29.3749 23.5535 29.228 26.0019 29.5241 28.4191C30.1473 33.4784 34.7926 37.3223 39.9854 37.3357C45.2093 37.3357 49.8546 33.4739 50.4734 28.3612C50.7605 25.9774 50.6225 23.5424 50.6403 21.1318C50.6403 20.9337 50.3732 20.7134 50.1951 20.542C49.3939 19.7919 48.4635 19.1486 47.7935 18.2961C46.7674 17.0074 46.5715 15.4137 46.665 13.6598ZM22.7242 65.3608V62.652H25.3284V61.6972C25.3284 58.975 25.3284 56.2551 25.3284 53.5329C25.3284 51.7879 26.4413 50.6861 28.2019 50.675C29.8401 50.675 31.4761 50.675 33.1143 50.675C33.3259 50.6648 33.5369 50.644 33.7464 50.6126C32.3976 49.1013 32.4822 47.107 31.6809 45.3842C29.9292 46.4259 28.1597 47.3607 26.517 48.4848C23.6546 50.4368 21.7938 53.1946 21.5267 56.6691C21.2596 60.1435 21.3042 63.6047 21.3954 67.068C21.4466 69.0713 23.2562 70.5536 25.295 70.5492V65.3608H22.7242ZM48.321 45.3286C47.5175 47.1626 47.5709 49.1325 46.2043 50.6705C48.1763 50.6705 50.0304 50.6571 51.8845 50.6705C53.5294 50.6861 54.6468 51.8034 54.6601 53.455C54.6779 55.4582 54.6601 57.4614 54.6601 59.4535V62.6832H57.2643V65.3542H54.6913V70.5381C56.9371 70.4935 58.6109 68.8442 58.6354 66.6162C58.6643 63.785 58.6933 60.9493 58.6354 58.1203C58.5486 54.3809 57.0773 51.2359 54.1014 48.9655C52.3119 47.6078 50.2753 46.5528 48.3099 45.3308L48.321 45.3286ZM50.6181 17.5215C50.6181 15.3914 50.7538 13.3704 50.5802 11.3739C50.4066 9.37731 48.6638 8.01511 46.6539 8.00621C42.2156 7.98692 37.7774 7.98692 33.3391 8.00621C31.3626 8.00621 29.6265 9.35728 29.4439 11.3026C29.2525 13.3214 29.4017 15.3714 29.4017 17.5171C30.3654 16.6134 30.6704 15.5762 30.6748 14.401C30.6748 11.6009 32.0103 10.5859 34.7035 11.2848C38.0687 12.1885 41.6094 12.213 44.9868 11.3561C48.1318 10.5637 49.2559 11.4273 49.336 14.6592C49.3309 15.1997 49.4417 15.7351 49.6609 16.2292C49.8802 16.7234 50.2028 17.1648 50.6069 17.5238L50.6181 17.5215ZM28.0684 74.7115C27.8302 76.4565 27.9549 77.4136 30.3165 77.3691C34.8081 77.2845 39.302 77.3446 43.7959 77.3446C45.9861 77.3446 48.1786 77.3446 50.3688 77.3446C51.5062 77.3446 51.9713 76.8594 51.9869 75.7153C51.9869 75.3926 51.9869 75.0698 51.9869 74.7137L28.0684 74.7115ZM37.2877 39.9043C37.3344 41.8808 39.1373 42.8179 39.9431 44.5028C40.7711 43.4032 41.5256 42.4862 42.18 41.5002C42.4872 41.0417 42.6029 40.4563 42.8144 39.9043H37.2877ZM38.1224 46.4081L35.438 42.8223C34.5477 43.2497 34.1582 43.8484 34.3563 44.6853C34.6457 45.9095 35.024 47.1137 35.4069 48.4447L38.1224 46.4081ZM44.5772 42.7778L41.8617 46.4059L44.575 48.4336C44.9467 47.1181 45.3206 45.9384 45.61 44.7365C45.8125 43.8951 45.4764 43.2363 44.5772 42.7778ZM26.5971 25.2852V21.3744C24.9834 21.094 23.9573 22.2647 24.0018 23.4044C24.0508 24.6731 25.088 25.4276 26.5971 25.2852ZM53.3558 21.3855V25.2852C54.3485 25.4321 55.152 25.2006 55.6795 24.3459C55.89 24.0322 55.9985 23.6611 55.9901 23.2834C55.9817 22.9058 55.8569 22.5399 55.6328 22.2358C55.0986 21.4434 54.3151 21.232 53.3558 21.3855ZM40.0009 48.3401L36.9694 50.6193H43.0347L40.0009 48.3401Z" fill="#0B4396"/>
<path d="M5.40707 2.0522C6.07481 2.415 6.69804 2.74442 7.31014 3.10501C8.39856 3.74826 8.71463 3.62139 9.02179 2.38384C9.61385 -1.91043e-06 9.61385 0 12.0667 0H12.2336C14.337 0 14.3637 0.0200308 14.8712 2.03661C14.9402 2.30371 15.0003 2.57526 15.0938 2.84013C15.2897 3.43888 15.7615 3.63474 16.3091 3.32981C16.8566 3.02487 17.3552 2.69991 17.8827 2.39497C18.1397 2.22144 18.4507 2.14639 18.7585 2.1836C19.0664 2.2208 19.3505 2.36777 19.5588 2.59752C20.1775 3.19404 20.7852 3.80613 21.3861 4.42268C21.6271 4.6389 21.7803 4.93615 21.8164 5.2579C21.8525 5.57965 21.7691 5.90345 21.582 6.16771C21.2993 6.64626 21.0033 7.11591 20.7273 7.59668C20.3311 8.28891 20.5181 8.73185 21.2971 8.94775C21.8046 9.0902 22.3188 9.20594 22.8307 9.33281C23.6075 9.52423 24.0104 10.0006 24.0037 10.8219C24.0037 11.5987 24.0037 12.3799 24.0037 13.1523C24.0037 13.9247 23.6298 14.4611 22.853 14.6636C22.2898 14.8105 21.72 14.9329 21.1636 15.1088C20.5537 15.2935 20.3667 15.7632 20.6739 16.3174C20.9811 16.8716 21.3038 17.3613 21.6065 17.891C21.7783 18.1493 21.8519 18.4606 21.8139 18.7685C21.7759 19.0764 21.6289 19.3605 21.3995 19.5693C20.803 20.1881 20.1931 20.7957 19.5766 21.3967C19.0513 21.9086 18.4637 21.9621 17.8293 21.5881C17.353 21.3032 16.8833 21.0072 16.4026 20.7334C15.7096 20.3372 15.2585 20.5286 15.0493 21.3077C14.9113 21.8151 14.7955 22.3293 14.6709 22.8412C14.4795 23.6203 13.9898 24.0187 13.1796 24.012C12.3694 24.0053 11.6215 24.012 10.8469 24.012C10.0724 24.012 9.5404 23.6403 9.3423 22.8591C9.19985 22.2937 9.07965 21.7239 8.91272 21.1674C8.7302 20.5642 8.24498 20.3795 7.69743 20.6867C7.18772 20.9693 6.69359 21.2787 6.19501 21.577C5.92132 21.7761 5.58225 21.8639 5.24633 21.8225C4.91041 21.7812 4.6027 21.6139 4.38542 21.3544L2.67823 19.645C2.10398 19.073 2.03943 18.452 2.47791 17.7664C2.76059 17.3212 3.02769 16.8761 3.29033 16.4109C3.68652 15.715 3.49362 15.2624 2.71162 15.0531C2.17743 14.9107 1.6321 14.8039 1.09791 14.6569C0.779829 14.597 0.494347 14.4236 0.294551 14.1689C0.0947559 13.9143 -0.00575515 13.5957 0.0117131 13.2725C0.0117131 12.4378 0.0117131 11.6054 0.0117131 10.7729C0.0117131 9.9961 0.42126 9.53537 1.158 9.35062C1.69665 9.21707 2.23975 9.10356 2.77171 8.95443C3.48175 8.75411 3.66204 8.28669 3.30146 7.6323C3.02546 7.1493 2.73387 6.67742 2.44452 6.20333C2.04165 5.53558 2.11733 4.93907 2.6671 4.39375C3.25471 3.80391 3.82897 3.19626 4.44775 2.63758C4.68368 2.39497 5.03091 2.2681 5.40707 2.0522ZM5.48943 5.13494C5.44937 5.47549 5.32917 5.74704 5.41153 5.93178C5.61185 6.37694 5.99246 6.76869 6.13713 7.23166C6.29378 7.68802 6.31999 8.17905 6.21282 8.6495C5.76766 10.2365 5.01756 11.5698 3.07888 11.6388C2.93865 11.6388 2.80733 11.8903 2.67378 12.0238C2.80163 12.1686 2.95194 12.2918 3.11894 12.3889C3.48597 12.5146 3.86163 12.6135 4.24298 12.6849C4.58855 12.732 4.9107 12.8861 5.16419 13.1256C5.41769 13.3651 5.5898 13.678 5.65637 14.0204C5.70407 14.2664 5.79446 14.5022 5.92346 14.717C6.5912 15.6853 6.41536 16.5667 5.77211 17.4793C5.54952 17.7864 5.53839 18.236 5.42933 18.6211C5.79436 18.4965 6.21504 18.4475 6.51775 18.2316C7.4192 17.5861 8.2984 17.3902 9.2733 18.0624C9.41181 18.1558 9.56778 18.2202 9.73182 18.2516C10.7423 18.443 11.2276 19.0663 11.3967 20.0612C11.4724 20.5064 11.7662 20.907 11.9598 21.3255C12.1824 20.9003 12.5141 20.4975 12.592 20.0479C12.77 19.0418 13.3955 18.6612 14.2524 18.2071C15.6347 17.4793 16.7542 17.5995 17.9183 18.5143C18.0697 18.6322 18.3501 18.5855 18.5705 18.6144C18.5889 18.3955 18.5701 18.175 18.5149 17.9623C18.3435 17.5861 18.0942 17.2456 17.8916 16.8805C17.3819 15.9679 18.2478 13.2903 19.1937 12.8563C19.3731 12.782 19.5585 12.7232 19.748 12.6804C20.0211 12.6337 20.2904 12.5667 20.5537 12.4801C20.8203 12.3454 21.0763 12.1907 21.3194 12.0171C21.0976 11.8247 20.8541 11.6589 20.5938 11.523C20.2109 11.3694 19.7635 11.365 19.403 11.178C19.0367 11.0084 18.7274 10.7363 18.5126 10.3945C17.7648 8.9344 17.1616 7.44088 18.5727 5.99633C18.5905 5.9763 18.6195 5.95181 18.6195 5.92956C18.6195 5.75594 18.6729 5.51555 18.5839 5.42429C18.5099 5.37923 18.4263 5.35249 18.34 5.34629C18.2537 5.3401 18.1671 5.35463 18.0875 5.38868C17.6668 5.59791 17.2907 5.90284 16.8633 6.09204C16.524 6.26777 16.1457 6.35432 15.7638 6.34355C13.9542 6.12097 12.9325 5.1572 12.4718 3.42107C12.3983 3.14729 12.1624 2.91804 12.0021 2.66652C11.8374 2.91359 11.557 3.14507 11.528 3.40771C11.35 4.72539 10.7646 5.63352 9.37124 5.87168C9.29032 5.89113 9.21445 5.92755 9.14866 5.97852C8.29395 6.56391 7.48821 6.44372 6.70027 5.84497C6.39088 5.61794 6.0303 5.45323 5.50056 5.13494H5.48943Z" fill="#0B4396"/>
<path d="M21.2877 37.3379V40.0089C19.2311 40.0089 17.2123 40.0267 15.1957 40.0089C14.6726 40.0089 14.3766 40.1202 14.1095 40.6321C13.7246 41.3453 13.1275 41.9211 12.401 42.28C11.6744 42.6389 10.8543 42.7631 10.0541 42.6354C9.21398 42.4959 8.43922 42.0952 7.83986 41.4902C7.2405 40.8853 6.84703 40.1068 6.71535 39.2655C6.59197 38.4638 6.72137 37.6436 7.08556 36.9188C7.44974 36.194 8.03063 35.6007 8.74751 35.2212C9.27058 34.9497 9.35516 34.6336 9.35293 34.1239C9.3329 31.6755 9.35293 29.2405 9.35293 26.7386H12.0239V28.5193C12.0239 30.4357 12.035 32.3499 12.0239 34.2663C12.0239 34.7004 12.1686 34.9074 12.5292 35.1745C13.1671 35.6458 13.7293 36.2117 14.1963 36.8527C14.2874 37.0129 14.4223 37.1437 14.5851 37.2301C14.7479 37.3164 14.9319 37.3546 15.1156 37.3402C17.1321 37.329 19.1799 37.3379 21.2877 37.3379ZM10.6728 40.0089C10.9386 40.0088 11.1982 39.9294 11.4186 39.7809C11.6389 39.6325 11.81 39.4216 11.9099 39.1754C12.0097 38.9291 12.0339 38.6587 11.9792 38.3987C11.9245 38.1386 11.7935 37.9008 11.603 37.7156C11.4124 37.5305 11.1709 37.4063 10.9094 37.3592C10.6479 37.312 10.3783 37.3439 10.135 37.4508C9.89174 37.5577 9.68589 37.7347 9.5438 37.9593C9.40171 38.1838 9.32982 38.4457 9.33735 38.7113C9.34947 39.0573 9.49551 39.3851 9.74466 39.6255C9.99381 39.866 10.3266 40.0002 10.6728 40V40.0089Z" fill="#0B4396"/>
<path d="M58.6973 40.0045V37.3335C60.7205 37.3335 62.7037 37.3113 64.6958 37.3491C65.2857 37.3491 65.5973 37.2 65.9289 36.6813C66.3257 36.0861 66.8457 35.5828 67.4536 35.2056C67.8676 34.9363 68.0056 34.6982 68.0011 34.2374C67.9811 32.0116 68.0011 29.7858 68.0011 27.5733V26.7186H70.6721V27.5822C70.6721 29.8081 70.6721 32.0339 70.6721 34.2441C70.6721 34.6559 70.7278 34.9296 71.1596 35.1589C72.7621 36.0047 73.5857 37.6629 73.2986 39.3033C73.1616 40.1311 72.7705 40.8957 72.1794 41.4912C71.5884 42.0866 70.8266 42.4834 69.9999 42.6265C69.1685 42.7689 68.3134 42.6402 67.5607 42.2594C66.8081 41.8787 66.1977 41.2661 65.8199 40.512C65.7485 40.3404 65.6227 40.197 65.4618 40.1041C65.3009 40.0111 65.1138 39.9738 64.9295 39.9978C62.864 40.0156 60.814 40.0045 58.6973 40.0045ZM69.2966 37.3446C69.0308 37.3489 68.7724 37.4323 68.5543 37.5843C68.3363 37.7363 68.1686 37.9498 68.0726 38.1977C67.9766 38.4455 67.9568 38.7164 68.0156 38.9755C68.0744 39.2347 68.2092 39.4705 68.4028 39.6526C68.5964 39.8347 68.8399 39.9549 69.1022 39.9979C69.3644 40.0408 69.6336 40.0045 69.8751 39.8937C70.1166 39.7828 70.3196 39.6023 70.458 39.3755C70.5964 39.1486 70.664 38.8855 70.6521 38.62C70.6365 38.2713 70.4849 37.9425 70.2299 37.7042C69.9749 37.4658 69.6367 37.3367 69.2877 37.3446H69.2966Z" fill="#0B4396"/>
<path d="M63.0747 7.12482L64.9154 8.97891L61.7592 11.9682L64.98 14.9329L62.9545 16.7581C61.6924 15.5183 60.3058 14.2007 58.9747 12.8318C58.8601 12.7255 58.7687 12.5967 58.7061 12.4535C58.6436 12.3102 58.6113 12.1556 58.6113 11.9993C58.6113 11.843 58.6436 11.6884 58.7061 11.5452C58.7687 11.4019 58.8601 11.2731 58.9747 11.1669C60.308 9.79801 61.6924 8.48033 63.0747 7.12482Z" fill="#0B4396"/>
<path d="M73.8037 14.9218L76.8441 12.0795L73.6367 9.03677L75.6956 7.18268C76.0673 7.54548 76.5369 7.9951 76.9977 8.45584C77.8257 9.27716 78.6581 10.094 79.4661 10.9332C80.1339 11.612 80.1895 12.2931 79.5819 12.923C78.2953 14.2585 76.9576 15.545 75.6132 16.8805C75.0167 16.2417 74.4447 15.6185 73.8037 14.9218Z" fill="#0B4396"/>
<path d="M69.277 17.6573L66.6973 16.9896L69.3571 6.34131L71.9346 6.98679C71.0465 10.5592 70.1718 14.0671 69.277 17.6573Z" fill="#0B4396"/>
<path d="M40.0007 58.6724C40.7919 58.6724 41.5655 58.9067 42.2237 59.3458C42.882 59.7848 43.3955 60.409 43.6995 61.1395C44.0035 61.87 44.0844 62.6742 43.932 63.4507C43.7796 64.2271 43.4006 64.941 42.843 65.5024C42.2853 66.0637 41.574 66.4474 40.7985 66.605C40.0231 66.7626 39.2184 66.6871 38.4859 66.3879C37.7534 66.0888 37.1258 65.5794 36.6824 64.9241C36.239 64.2687 35.9995 63.4968 35.9942 62.7055C35.9907 62.1771 36.0917 61.6533 36.2915 61.1641C36.4913 60.6749 36.7858 60.2301 37.1582 59.8553C37.5306 59.4804 37.9735 59.1829 38.4613 58.9799C38.9491 58.7769 39.4723 58.6724 40.0007 58.6724ZM41.325 62.7033C41.3339 62.4374 41.2632 62.175 41.1219 61.9496C40.9807 61.7242 40.7753 61.5461 40.5322 61.4382C40.2891 61.3303 40.0193 61.2974 39.7574 61.3438C39.4955 61.3902 39.2534 61.5137 39.0621 61.6986C38.8709 61.8835 38.7392 62.1212 38.6839 62.3814C38.6287 62.6416 38.6524 62.9124 38.752 63.159C38.8517 63.4057 39.0227 63.6169 39.2432 63.7657C39.4637 63.9145 39.7236 63.9941 39.9896 63.9943C40.3335 63.9928 40.6637 63.8587 40.9112 63.6199C41.1588 63.381 41.3046 63.0559 41.3184 62.7122L41.325 62.7033Z" fill="#0B4396"/>
<path d="M34.6713 21.3389C35.2015 21.3389 35.7196 21.4968 36.1598 21.7923C36.5999 22.0878 36.9422 22.5076 37.143 22.9983C37.3438 23.4889 37.394 24.0282 37.2873 24.5475C37.1805 25.0668 36.9217 25.5426 36.5437 25.9143C36.1657 26.286 35.6856 26.5368 35.1646 26.6348C34.6436 26.7328 34.1052 26.6735 33.618 26.4645C33.1308 26.2555 32.7168 25.9062 32.4287 25.4612C32.1406 25.0161 31.9915 24.4954 32.0004 23.9653C32.0121 23.2647 32.2986 22.5967 32.7982 22.1054C33.2979 21.6141 33.9706 21.3388 34.6713 21.3389Z" fill="#0B4396"/>
<path d="M45.305 21.3388C45.8354 21.3313 46.356 21.4818 46.8005 21.7713C47.245 22.0608 47.5932 22.4761 47.8008 22.9642C48.0084 23.4523 48.0659 23.9912 47.9661 24.5122C47.8662 25.0331 47.6136 25.5126 47.2402 25.8894C46.8669 26.2662 46.3898 26.5233 45.8698 26.6279C45.3498 26.7326 44.8104 26.68 44.3204 26.477C43.8303 26.2739 43.4119 25.9296 43.1183 25.4878C42.8247 25.046 42.6693 24.5268 42.6719 23.9964C42.6753 23.2968 42.9531 22.6265 43.4455 22.1296C43.9378 21.6326 44.6055 21.3487 45.305 21.3388Z" fill="#0B4396"/>
<path d="M35.6445 31.6109L37.3117 29.7167C39.4062 30.9476 40.7105 30.9454 42.6536 29.6923L44.3252 31.582C42.4733 33.8835 37.8748 33.9124 35.6445 31.6109Z" fill="#0B4396"/>
<path d="M17.3275 11.9637C17.3345 13.0172 17.0292 14.0491 16.4502 14.9291C15.8711 15.8092 15.0443 16.4979 14.0741 16.9085C13.1039 17.319 12.0339 17.4328 10.999 17.2356C9.96419 17.0385 9.01096 16.5391 8.25971 15.8006C7.50847 15.062 6.99288 14.1175 6.77804 13.0862C6.56321 12.0548 6.65876 10.983 7.05264 10.0059C7.44651 9.02886 8.12106 8.1904 8.9911 7.59642C9.86113 7.00243 10.8877 6.67954 11.9411 6.66852C13.3575 6.65666 14.7206 7.20783 15.7307 8.20082C16.7408 9.19381 17.3152 10.5473 17.3275 11.9637ZM11.9277 14.6614C12.4573 14.6768 12.9795 14.5343 13.4279 14.2521C13.8763 13.9699 14.2307 13.5608 14.4459 13.0766C14.6612 12.5925 14.7276 12.0553 14.6367 11.5333C14.5458 11.0114 14.3017 10.5282 13.9355 10.1454C13.5693 9.76249 13.0975 9.49717 12.5801 9.38316C12.0627 9.26915 11.523 9.3116 11.0298 9.5051C10.5366 9.6986 10.1121 10.0344 9.81021 10.4698C9.50835 10.9053 9.34282 11.4206 9.33465 11.9504C9.32382 12.6524 9.58982 13.3304 10.0751 13.8378C10.5604 14.3451 11.2259 14.641 11.9277 14.6614Z" fill="#0B4396"/>
</svg>
