<svg width="80" height="70" viewBox="0 0 80 70" fill="none" xmlns="http://www.w3.org/2000/svg">
<path d="M12.9048 15.4202V14.5178C12.9048 11.212 12.8918 7.9061 12.9048 4.60023C12.9177 1.96415 14.8603 0.00861466 17.4964 0.00646099C36.7946 -0.00215366 56.0943 -0.00215366 75.3955 0.00646099C78.0337 0.00646099 79.9849 1.95768 79.9871 4.60023C79.9971 20.4555 79.9971 36.3108 79.9871 52.166C79.9871 54.8021 78.0294 56.7361 75.389 56.7555C72.9446 56.7749 70.498 56.7555 68.0515 56.7555H67.0909V57.6794C67.0909 60.126 67.1039 62.5704 67.0909 65.017C67.0737 67.7047 65.1526 69.6495 62.4563 69.6516C43.1824 69.6603 23.91 69.6603 4.63899 69.6516C1.95122 69.6516 0.00861466 67.7026 0.00646099 65.0148C-0.00215366 50.0469 -0.00215366 35.0782 0.00646099 20.1088C0.00646099 17.4231 1.95768 15.4935 4.64761 15.4805C7.33754 15.4676 9.96931 15.4805 12.6291 15.4698C12.7219 15.4592 12.814 15.4426 12.9048 15.4202ZM64.5152 25.859H2.58225V64.5152C2.58225 66.4405 3.21758 67.0802 5.13219 67.0802H61.9674C63.8777 67.0802 64.513 66.4341 64.513 64.5087V25.859H64.5152ZM15.5193 15.4827H16.5509C31.7041 15.4827 46.8587 15.4827 62.0148 15.4827C65.2948 15.4827 67.0953 17.281 67.0953 20.561V54.1797H74.8484C76.7738 54.1797 77.4156 53.5336 77.4156 51.6319V10.3656H15.5193V15.4827ZM77.4178 7.69504V5.18603C77.4178 3.2025 76.7997 2.58225 74.8334 2.58225H18.0779C17.8086 2.58225 17.5373 2.56933 17.2724 2.59517C16.4518 2.6727 15.6787 3.19389 15.6033 3.98859C15.487 5.22264 15.5731 6.47392 15.5731 7.7015L77.4178 7.69504ZM2.58871 23.1583H64.5152V20.701C64.5152 18.6701 63.9078 18.0628 61.8769 18.0628H5.20971C4.94051 18.0628 4.66915 18.0499 4.40425 18.0736C3.92858 18.0965 3.47894 18.2975 3.1446 18.6366C2.81026 18.9758 2.61568 19.4282 2.59947 19.9042C2.5564 20.9745 2.58871 22.0449 2.58871 23.1648V23.1583Z" fill="#006299"/>
<path d="M14.1953 46.4395C14.1953 35.7831 22.8746 27.0845 33.5051 27.0909C36.0559 27.089 38.5821 27.5905 40.9387 28.5668C43.2953 29.5431 45.4361 30.9749 47.2382 32.7803C49.0403 34.5856 50.4684 36.7289 51.4405 39.0872C52.4126 41.4456 52.9096 43.9726 52.9031 46.5235C52.8816 57.1561 44.1722 65.8095 33.5072 65.7901C28.3832 65.7753 23.4739 63.7306 19.8543 60.1037C16.2347 56.4769 14.1998 51.5635 14.1953 46.4395ZM26.4324 52.8574H40.61C41.5275 50.0404 41.4865 42.0568 40.5562 40.0237H26.4324C25.6024 44.2613 25.6024 48.6198 26.4324 52.8574ZM23.805 52.8897C23.0542 48.6237 23.0461 44.2601 23.7813 39.9914C21.9334 39.9914 20.217 39.9763 18.5005 40.0129C18.3715 40.038 18.2501 40.093 18.1462 40.1734C18.0422 40.2538 17.9585 40.3574 17.9018 40.476C16.3909 44.317 16.3909 48.5878 17.9018 52.4288C17.9523 52.5368 18.0269 52.6318 18.1198 52.7065C18.2128 52.7812 18.3217 52.8335 18.438 52.8595C20.1868 52.9026 21.927 52.8897 23.8028 52.8897H23.805ZM43.2913 40C44.0471 44.2655 44.0559 48.6299 43.3172 52.8983C45.1844 52.8983 46.9267 52.9112 48.669 52.8789C48.786 52.8489 48.8945 52.7923 48.9861 52.7135C49.0776 52.6347 49.1497 52.5358 49.1967 52.4245C50.7053 48.5823 50.7053 44.3117 49.1967 40.4695C49.1494 40.3591 49.0772 40.2611 48.9856 40.1834C48.894 40.1056 48.7857 40.0502 48.669 40.0215C46.9245 39.9785 45.1801 40 43.2913 40ZM40.0113 37.3855C39.2209 34.9518 38.2647 32.6668 36.3501 30.9245C34.5194 29.2532 32.5682 29.2489 30.7505 30.9245C28.8445 32.6646 27.8818 34.9475 27.0893 37.3855H40.0113ZM26.9752 55.4999C27.5373 56.7706 27.9271 57.9853 28.5775 59.0427C29.2676 60.216 30.1163 61.2886 31.0994 62.2301C32.5811 63.5826 34.3062 63.5676 35.8763 62.3594C38.1268 60.6364 39.1434 58.1403 40.0177 55.4999H26.9752ZM40.1448 31.0386C40.9438 32.9769 41.7536 34.9475 42.5806 36.916C42.6603 37.1055 42.8477 37.3898 42.992 37.3941C44.4995 37.4285 46.0071 37.4156 47.674 37.4156C45.6733 34.4005 43.1599 32.305 40.1448 31.03V31.0386ZM26.9515 31.0386C23.9256 32.3308 21.4036 34.4285 19.4136 37.4199C21.016 37.4199 22.4288 37.4415 23.8567 37.3962C23.9944 37.3699 24.1242 37.3123 24.2362 37.2279C24.3482 37.1435 24.4394 37.0346 24.5028 36.9095C25.3556 34.9389 26.1546 32.9618 26.9515 31.03V31.0386ZM26.9515 61.8619C26.1546 59.9386 25.347 57.9637 24.5135 55.9974C24.4274 55.795 24.2034 55.5085 24.0376 55.5042C22.5494 55.4655 21.0612 55.4805 19.4201 55.4805C21.4209 58.4698 23.9342 60.5696 26.9558 61.8532L26.9515 61.8619ZM47.6719 55.4784C46.0674 55.4784 44.6567 55.4655 43.2245 55.4956C43.1052 55.5025 42.9891 55.5365 42.8849 55.5951C42.7808 55.6537 42.6914 55.7353 42.6237 55.8338C41.7622 57.856 40.9503 59.8934 40.1513 61.8532C43.1599 60.574 45.6733 58.472 47.6762 55.4698L47.6719 55.4784Z" fill="#006299"/>
<path d="M18.7305 3.87226C18.8898 3.87226 19.0514 3.87226 19.2129 3.87226C20.0894 3.90241 20.6515 4.42144 20.6386 5.17953C20.6257 5.93762 20.083 6.41143 19.2538 6.44589C18.8791 6.46097 18.5022 6.46312 18.1274 6.44589C17.3091 6.40497 16.7706 5.87302 16.7814 5.14077C16.7922 4.40852 17.3371 3.91318 18.1662 3.87441C18.3536 3.8658 18.5409 3.87226 18.7305 3.87226Z" fill="#006299"/>
<path d="M23.8625 3.87231C25.1913 3.87231 25.8008 4.26859 25.8008 5.15159C25.8008 6.03459 25.1848 6.44379 23.8797 6.44379C22.5746 6.44379 21.9414 6.04105 21.9414 5.15159C21.9414 4.26213 22.5552 3.87231 23.8625 3.87231Z" fill="#006299"/>
<path d="M28.9823 6.4416C28.7415 6.46101 28.4995 6.46101 28.2587 6.4416C27.563 6.32746 27.1517 5.90965 27.1086 5.19894C27.0944 4.87196 27.2089 4.55243 27.4275 4.30886C27.6461 4.06529 27.9514 3.91707 28.278 3.89597C28.708 3.86238 29.1397 3.85806 29.5702 3.88305C30.4016 3.91105 30.9486 4.40854 30.9658 5.13648C30.983 5.86442 30.4188 6.42868 29.5509 6.45668C29.3635 6.45668 29.174 6.45668 28.9866 6.45668L28.9823 6.4416Z" fill="#006299"/>
<path d="M5.73571 21.9243C5.52051 21.9362 5.30481 21.9362 5.08961 21.9243C4.76458 21.9043 4.45911 21.7622 4.2343 21.5266C4.00948 21.291 3.88191 20.9792 3.8771 20.6536C3.87216 20.327 3.99387 20.0111 4.2167 19.7722C4.43953 19.5333 4.74619 19.39 5.07239 19.3722C5.52835 19.3388 5.98615 19.3388 6.44211 19.3722C7.21312 19.4153 7.73431 19.9429 7.73431 20.645C7.73431 21.3471 7.22174 21.8791 6.45935 21.9372C6.21813 21.9566 5.97477 21.9372 5.73356 21.9372L5.73571 21.9243Z" fill="#006299"/>
<path d="M10.9409 21.9308C10.7794 21.9308 10.6179 21.9308 10.4564 21.9308C9.58413 21.8942 9.02417 21.3709 9.0414 20.6128C9.05863 19.8547 9.60135 19.3873 10.4327 19.355C10.7816 19.3421 11.1326 19.3421 11.4815 19.355C12.343 19.383 12.9158 19.9128 12.8986 20.6688C12.8814 21.4247 12.3344 21.892 11.5052 21.9287C11.3178 21.9373 11.1283 21.9308 10.9409 21.9308Z" fill="#006299"/>
<path d="M16.1791 19.3614C16.42 19.3431 16.6619 19.3431 16.9028 19.3614C17.6027 19.4734 18.0097 19.8933 18.055 20.6019C18.0692 20.9291 17.9548 21.2489 17.7362 21.4928C17.5177 21.7367 17.2123 21.8854 16.8855 21.907C16.4556 21.9406 16.0239 21.9449 15.5933 21.9199C14.762 21.8919 14.2171 21.3923 14.1978 20.6665C14.1784 19.9063 14.7383 19.3743 15.6106 19.3463C15.7979 19.3463 15.9874 19.3463 16.1748 19.3463L16.1791 19.3614Z" fill="#006299"/>
</svg>
